<svg width="56" height="384" viewBox="0 0 56 384" fill="none" xmlns="http://www.w3.org/2000/svg">
<rect x="26.5" y="0.482391" width="3" height="111.399" fill="url(#paint0_linear_535_1766)"/>
<g clip-path="url(#clip0_535_1766)">
<path d="M27.9998 146.998C37.6971 146.998 45.5583 139.137 45.5583 129.44C45.5583 119.743 37.6971 111.882 27.9998 111.882C18.3026 111.882 10.4414 119.743 10.4414 129.44C10.4414 139.137 18.3026 146.998 27.9998 146.998Z" fill="white"/>
<path d="M28.0185 129.431L41.9606 129.435C41.9606 129.427 41.9624 129.281 41.9624 129.274C41.8728 121.637 35.6575 115.474 28 115.474L28.0186 129.431" fill="url(#paint1_linear_535_1766)"/>
<path d="M27.9999 144.851C36.5114 144.851 43.4113 137.951 43.4113 129.44C43.4113 120.928 36.5114 114.029 27.9999 114.029C19.4884 114.029 12.5885 120.928 12.5885 129.44C12.5885 137.951 19.4884 144.851 27.9999 144.851Z" stroke="#E8E8E8" stroke-width="0.905989" stroke-miterlimit="10"/>
<path d="M27.9999 144.851C36.5114 144.851 43.4113 137.951 43.4113 129.44C43.4113 120.928 36.5114 114.029 27.9999 114.029C19.4884 114.029 12.5885 120.928 12.5885 129.44C12.5885 137.951 19.4884 144.851 27.9999 144.851Z" stroke="#E8E8E8" stroke-width="0.905989" stroke-miterlimit="10"/>
<path d="M41.9647 129.44L32.4171 128.306C31.9125 126.34 30.1331 124.884 28.0089 124.884C25.4926 124.884 23.4528 126.924 23.4528 129.44C23.4528 131.956 25.4926 133.996 28.0089 133.996C30.1331 133.996 31.9126 132.54 32.4171 130.573L41.9647 129.44V129.44Z" fill="#221F1F"/>
</g>
<g clip-path="url(#clip1_535_1766)">
<path d="M27.7661 188.693C37.4633 188.693 45.3245 180.832 45.3245 171.135C45.3245 161.438 37.4633 153.576 27.7661 153.576C18.0688 153.576 10.2076 161.438 10.2076 171.135C10.2076 180.832 18.0688 188.693 27.7661 188.693Z" fill="white"/>
<path d="M27.7663 157.169C27.7511 157.169 27.7362 157.17 27.7211 157.17C27.7211 157.17 27.7511 185.101 27.7663 185.101C35.4796 185.101 41.7326 178.848 41.7326 171.135C41.7326 163.422 35.4796 157.169 27.7663 157.169Z" fill="url(#paint2_linear_535_1766)"/>
<path d="M27.7662 186.546C36.2777 186.546 43.1776 179.646 43.1776 171.135C43.1776 162.623 36.2777 155.724 27.7662 155.724C19.2547 155.724 12.3547 162.623 12.3547 171.135C12.3547 179.646 19.2547 186.546 27.7662 186.546Z" stroke="#E8E8E8" stroke-width="0.905989" stroke-miterlimit="10"/>
<path d="M27.7662 186.546C36.2777 186.546 43.1776 179.646 43.1776 171.135C43.1776 162.623 36.2777 155.724 27.7662 155.724C19.2547 155.724 12.3547 162.623 12.3547 171.135C12.3547 179.646 19.2547 186.546 27.7662 186.546Z" stroke="#E8E8E8" stroke-width="0.905989" stroke-miterlimit="10"/>
<path d="M27.7679 185.104L28.9014 175.542C30.8683 175.037 32.324 173.258 32.324 171.134C32.324 168.617 30.2842 166.578 27.7679 166.578C25.2516 166.578 23.2118 168.617 23.2118 171.134C23.2118 173.258 24.6676 175.037 26.6345 175.542L27.768 185.104L27.7679 185.104Z" fill="#221F1F"/>
</g>
<g clip-path="url(#clip2_535_1766)">
<path d="M27.883 230.388C37.5803 230.388 45.4414 222.527 45.4414 212.83C45.4414 203.133 37.5803 195.271 27.883 195.271C18.1858 195.271 10.3246 203.133 10.3246 212.83C10.3246 222.527 18.1858 230.388 27.883 230.388Z" fill="white"/>
<path d="M27.9821 198.866V212.83H13.9169C13.9169 220.543 20.1698 226.796 27.8832 226.796C35.5965 226.796 41.8495 220.543 41.8495 212.83C41.8495 205.15 35.6497 198.92 27.9822 198.866H27.9821Z" fill="url(#paint3_linear_535_1766)"/>
<path d="M27.8831 228.241C36.3946 228.241 43.2945 221.341 43.2945 212.83C43.2945 204.318 36.3946 197.418 27.8831 197.418C19.3716 197.418 12.4717 204.318 12.4717 212.83C12.4717 221.341 19.3716 228.241 27.8831 228.241Z" stroke="#E8E8E8" stroke-width="0.905989" stroke-miterlimit="10"/>
<path d="M27.8831 228.241C36.3946 228.241 43.2945 221.341 43.2945 212.83C43.2945 204.318 36.3946 197.418 27.8831 197.418C19.3716 197.418 12.4717 204.318 12.4717 212.83C12.4717 221.341 19.3716 228.241 27.8831 228.241Z" stroke="#E8E8E8" stroke-width="0.905989" stroke-miterlimit="10"/>
<path d="M13.8801 212.83L23.4936 213.963C23.9982 215.93 25.7776 217.386 27.9018 217.386C30.418 217.386 32.4579 215.346 32.4579 212.83C32.4579 210.314 30.418 208.274 27.9018 208.274C25.7775 208.274 23.998 209.73 23.4935 211.696L13.88 212.83L13.8801 212.83Z" fill="#221F1F"/>
</g>
<g clip-path="url(#clip3_535_1766)">
<path d="M27.6491 272.083C37.3464 272.083 45.2075 264.222 45.2075 254.525C45.2075 244.827 37.3464 236.966 27.6491 236.966C17.9519 236.966 10.0907 244.827 10.0907 254.525C10.0907 264.222 17.9519 272.083 27.6491 272.083Z" fill="white"/>
<path d="M27.6492 268.491C35.3625 268.491 41.6155 262.238 41.6155 254.525C41.6155 246.811 35.3625 240.558 27.6492 240.558C19.9358 240.558 13.6829 246.811 13.6829 254.525C13.6829 262.238 19.9358 268.491 27.6492 268.491Z" fill="url(#paint4_linear_535_1766)"/>
<path d="M27.6492 269.936C36.1607 269.936 43.0606 263.036 43.0606 254.525C43.0606 246.013 36.1607 239.113 27.6492 239.113C19.1377 239.113 12.2378 246.013 12.2378 254.525C12.2378 263.036 19.1377 269.936 27.6492 269.936Z" stroke="#E8E8E8" stroke-width="0.905989" stroke-miterlimit="10"/>
<path d="M27.6492 269.936C36.1607 269.936 43.0606 263.036 43.0606 254.525C43.0606 246.013 36.1607 239.113 27.6492 239.113C19.1377 239.113 12.2378 246.013 12.2378 254.525C12.2378 263.036 19.1377 269.936 27.6492 269.936Z" stroke="#E8E8E8" stroke-width="0.905989" stroke-miterlimit="10"/>
<path d="M27.6346 240.546L26.5011 250.112C24.5343 250.616 23.0785 252.396 23.0785 254.52C23.0785 257.036 25.1183 259.076 27.6346 259.076C30.1509 259.076 32.1907 257.036 32.1907 254.52C32.1907 252.396 30.7349 250.616 28.768 250.112L27.6346 240.546H27.6346Z" fill="#221F1F"/>
</g>
<rect x="29.5" y="383.482" width="3" height="111.399" transform="rotate(-180 29.5 383.482)" fill="url(#paint5_linear_535_1766)"/>
<defs>
<linearGradient id="paint0_linear_535_1766" x1="28" y1="0.482391" x2="28" y2="111.882" gradientUnits="userSpaceOnUse">
<stop stop-color="#73848D" stop-opacity="0"/>
<stop offset="1" stop-color="#73848D"/>
</linearGradient>
<linearGradient id="paint1_linear_535_1766" x1="25.9609" y1="117.513" x2="39.9219" y2="131.474" gradientUnits="userSpaceOnUse">
<stop offset="0.002" stop-color="#CBBDAC"/>
<stop offset="0.502" stop-color="#907E6B"/>
<stop offset="1" stop-color="#CBBDAC"/>
</linearGradient>
<linearGradient id="paint2_linear_535_1766" x1="22.2073" y1="162.684" x2="39.0881" y2="179.564" gradientUnits="userSpaceOnUse">
<stop offset="0.002" stop-color="#D7D7D8"/>
<stop offset="0.5" stop-color="#989899"/>
<stop offset="1" stop-color="#B2B3B6"/>
</linearGradient>
<linearGradient id="paint3_linear_535_1766" x1="18.0071" y1="202.955" x2="37.7585" y2="222.706" gradientUnits="userSpaceOnUse">
<stop stop-color="#F4D781"/>
<stop offset="0.502" stop-color="#DFA926"/>
<stop offset="1" stop-color="#F4D781"/>
</linearGradient>
<linearGradient id="paint4_linear_535_1766" x1="17.7735" y1="244.649" x2="37.5249" y2="264.4" gradientUnits="userSpaceOnUse">
<stop stop-color="#A2C3D3"/>
<stop offset="0.5" stop-color="#759BAB"/>
<stop offset="1" stop-color="#A2C3D3"/>
</linearGradient>
<linearGradient id="paint5_linear_535_1766" x1="31" y1="383.482" x2="31" y2="494.882" gradientUnits="userSpaceOnUse">
<stop stop-color="#73848D" stop-opacity="0"/>
<stop offset="1" stop-color="#73848D"/>
</linearGradient>
<clipPath id="clip0_535_1766">
<rect width="35.1169" height="35.1169" fill="white" transform="translate(10.4415 111.882)"/>
</clipPath>
<clipPath id="clip1_535_1766">
<rect width="35.1169" height="35.1169" fill="white" transform="translate(10.4415 153.576)"/>
</clipPath>
<clipPath id="clip2_535_1766">
<rect width="35.1169" height="35.1169" fill="white" transform="translate(10.4415 195.271)"/>
</clipPath>
<clipPath id="clip3_535_1766">
<rect width="35.1169" height="35.1169" fill="white" transform="translate(10.4415 236.966)"/>
</clipPath>
</defs>
</svg>
