<svg width="315" height="33" viewBox="0 0 315 33" fill="none" xmlns="http://www.w3.org/2000/svg">
<rect y="17.4298" width="2.19283" height="84.5519" transform="rotate(-90 0 17.4298)" fill="url(#paint0_linear_1017_2488)"/>
<g clip-path="url(#clip0_1017_2488)">
<path d="M100.542 32.3239C109.374 32.3239 116.533 25.1647 116.533 16.3334C116.533 7.50209 109.374 0.342896 100.542 0.342896C91.7111 0.342896 84.5519 7.50209 84.5519 16.3334C84.5519 25.1647 91.7111 32.3239 100.542 32.3239Z" fill="white"/>
<path d="M100.559 16.3254L113.257 16.3288C113.257 16.322 113.258 16.1886 113.258 16.1818C113.177 9.22734 107.516 3.61426 100.543 3.61426L100.559 16.3254" fill="url(#paint1_linear_1017_2488)"/>
<path d="M100.542 30.3686C108.294 30.3686 114.578 24.0848 114.578 16.3333C114.578 8.58188 108.294 2.2981 100.542 2.2981C92.791 2.2981 86.5072 8.58188 86.5072 16.3333C86.5072 24.0848 92.791 30.3686 100.542 30.3686Z" stroke="#E8E8E8" stroke-width="0.825087" stroke-miterlimit="10"/>
<path d="M100.542 30.3686C108.294 30.3686 114.578 24.0848 114.578 16.3333C114.578 8.58188 108.294 2.2981 100.542 2.2981C92.791 2.2981 86.5072 8.58188 86.5072 16.3333C86.5072 24.0848 92.791 30.3686 100.542 30.3686Z" stroke="#E8E8E8" stroke-width="0.825087" stroke-miterlimit="10"/>
<path d="M113.26 16.3335L104.565 15.3012C104.106 13.51 102.485 12.1842 100.551 12.1842C98.2591 12.1842 96.4014 14.0419 96.4014 16.3335C96.4014 18.6251 98.2591 20.4828 100.551 20.4828C102.485 20.4828 104.106 19.1569 104.565 17.3657L113.26 16.3334V16.3335Z" fill="#221F1F"/>
</g>
<g clip-path="url(#clip1_1017_2488)">
<path d="M138.301 32.3239C147.132 32.3239 154.292 25.1647 154.292 16.3334C154.292 7.50209 147.132 0.342896 138.301 0.342896C129.47 0.342896 122.311 7.50209 122.311 16.3334C122.311 25.1647 129.47 32.3239 138.301 32.3239Z" fill="white"/>
<path d="M138.301 3.61426C138.288 3.61426 138.274 3.61528 138.26 3.61528C138.26 3.61528 138.288 29.0525 138.301 29.0525C145.326 29.0525 151.021 23.3579 151.021 16.3333C151.021 9.30876 145.326 3.61426 138.301 3.61426Z" fill="url(#paint2_linear_1017_2488)"/>
<path d="M138.301 30.3686C146.053 30.3686 152.336 24.0848 152.336 16.3333C152.336 8.58188 146.053 2.2981 138.301 2.2981C130.55 2.2981 124.266 8.58188 124.266 16.3333C124.266 24.0848 130.55 30.3686 138.301 30.3686Z" stroke="#E8E8E8" stroke-width="0.825087" stroke-miterlimit="10"/>
<path d="M138.301 30.3686C146.053 30.3686 152.336 24.0848 152.336 16.3333C152.336 8.58188 146.053 2.2981 138.301 2.2981C130.55 2.2981 124.266 8.58188 124.266 16.3333C124.266 24.0848 130.55 30.3686 138.301 30.3686Z" stroke="#E8E8E8" stroke-width="0.825087" stroke-miterlimit="10"/>
<path d="M138.303 29.0554L139.335 20.3468C141.126 19.8873 142.452 18.2668 142.452 16.3323C142.452 14.0407 140.594 12.183 138.303 12.183C136.011 12.183 134.154 14.0407 134.154 16.3323C134.154 18.2668 135.479 19.8874 137.271 20.3469L138.303 29.0554L138.303 29.0554Z" fill="#221F1F"/>
</g>
<g clip-path="url(#clip2_1017_2488)">
<path d="M176.379 32.3239C185.211 32.3239 192.37 25.1647 192.37 16.3334C192.37 7.50209 185.211 0.342896 176.379 0.342896C167.548 0.342896 160.389 7.50209 160.389 16.3334C160.389 25.1647 167.548 32.3239 176.379 32.3239Z" fill="white"/>
<path d="M176.47 3.61658V16.3334H163.66C163.66 23.358 169.355 29.0526 176.38 29.0526C183.404 29.0526 189.099 23.358 189.099 16.3335C189.099 9.33911 183.453 3.66534 176.47 3.61658H176.47Z" fill="url(#paint3_linear_1017_2488)"/>
<path d="M176.379 30.3686C184.131 30.3686 190.415 24.0848 190.415 16.3333C190.415 8.58188 184.131 2.2981 176.379 2.2981C168.628 2.2981 162.344 8.58188 162.344 16.3333C162.344 24.0848 168.628 30.3686 176.379 30.3686Z" stroke="#E8E8E8" stroke-width="0.825087" stroke-miterlimit="10"/>
<path d="M176.379 30.3686C184.131 30.3686 190.415 24.0848 190.415 16.3333C190.415 8.58188 184.131 2.2981 176.379 2.2981C168.628 2.2981 162.344 8.58188 162.344 16.3333C162.344 24.0848 168.628 30.3686 176.379 30.3686Z" stroke="#E8E8E8" stroke-width="0.825087" stroke-miterlimit="10"/>
<path d="M163.627 16.3335L172.382 17.3658C172.841 19.157 174.462 20.4828 176.396 20.4828C178.688 20.4828 180.546 18.6251 180.546 16.3335C180.546 14.0419 178.688 12.1842 176.396 12.1842C174.462 12.1842 172.841 13.51 172.382 15.3013L163.627 16.3335L163.627 16.3335Z" fill="#221F1F"/>
</g>
<g clip-path="url(#clip3_1017_2488)">
<path d="M214.138 32.3239C222.969 32.3239 230.129 25.1647 230.129 16.3334C230.129 7.50209 222.969 0.342896 214.138 0.342896C205.307 0.342896 198.148 7.50209 198.148 16.3334C198.148 25.1647 205.307 32.3239 214.138 32.3239Z" fill="white"/>
<path d="M214.138 29.0526C221.163 29.0526 226.857 23.358 226.857 16.3334C226.857 9.30882 221.163 3.61426 214.138 3.61426C207.114 3.61426 201.419 9.30882 201.419 16.3334C201.419 23.358 207.114 29.0526 214.138 29.0526Z" fill="url(#paint4_linear_1017_2488)"/>
<path d="M214.138 30.3686C221.89 30.3686 228.173 24.0848 228.173 16.3333C228.173 8.58188 221.89 2.2981 214.138 2.2981C206.387 2.2981 200.103 8.58188 200.103 16.3333C200.103 24.0848 206.387 30.3686 214.138 30.3686Z" stroke="#E8E8E8" stroke-width="0.825087" stroke-miterlimit="10"/>
<path d="M214.138 30.3686C221.89 30.3686 228.173 24.0848 228.173 16.3333C228.173 8.58188 221.89 2.2981 214.138 2.2981C206.387 2.2981 200.103 8.58188 200.103 16.3333C200.103 24.0848 206.387 30.3686 214.138 30.3686Z" stroke="#E8E8E8" stroke-width="0.825087" stroke-miterlimit="10"/>
<path d="M214.125 3.60254L213.093 12.3144C211.301 12.774 209.976 14.3945 209.976 16.329C209.976 18.6206 211.833 20.4783 214.125 20.4783C216.416 20.4783 218.274 18.6206 218.274 16.329C218.274 14.3944 216.948 12.7739 215.157 12.3144L214.125 3.60254H214.125Z" fill="#221F1F"/>
</g>
<rect width="2.19283" height="84.5519" transform="matrix(4.37114e-08 -1 -1 -4.37114e-08 315 17.4298)" fill="url(#paint5_linear_1017_2488)"/>
<defs>
<linearGradient id="paint0_linear_1017_2488" x1="1.09641" y1="17.4298" x2="1.09641" y2="101.982" gradientUnits="userSpaceOnUse">
<stop stop-color="#73848D" stop-opacity="0"/>
<stop offset="1" stop-color="#73848D"/>
</linearGradient>
<linearGradient id="paint1_linear_1017_2488" x1="98.6856" y1="5.47117" x2="111.4" y2="18.1855" gradientUnits="userSpaceOnUse">
<stop offset="0.002" stop-color="#CBBDAC"/>
<stop offset="0.502" stop-color="#907E6B"/>
<stop offset="1" stop-color="#CBBDAC"/>
</linearGradient>
<linearGradient id="paint2_linear_1017_2488" x1="133.239" y1="8.63667" x2="148.612" y2="24.0101" gradientUnits="userSpaceOnUse">
<stop offset="0.002" stop-color="#D7D7D8"/>
<stop offset="0.5" stop-color="#989899"/>
<stop offset="1" stop-color="#B2B3B6"/>
</linearGradient>
<linearGradient id="paint3_linear_1017_2488" x1="167.385" y1="7.33992" x2="185.373" y2="25.3275" gradientUnits="userSpaceOnUse">
<stop stop-color="#F4D781"/>
<stop offset="0.502" stop-color="#DFA926"/>
<stop offset="1" stop-color="#F4D781"/>
</linearGradient>
<linearGradient id="paint4_linear_1017_2488" x1="205.144" y1="7.33964" x2="223.132" y2="25.3272" gradientUnits="userSpaceOnUse">
<stop stop-color="#A2C3D3"/>
<stop offset="0.5" stop-color="#759BAB"/>
<stop offset="1" stop-color="#A2C3D3"/>
</linearGradient>
<linearGradient id="paint5_linear_1017_2488" x1="1.09641" y1="0" x2="1.09641" y2="84.5519" gradientUnits="userSpaceOnUse">
<stop stop-color="#73848D" stop-opacity="0"/>
<stop offset="1" stop-color="#73848D"/>
</linearGradient>
<clipPath id="clip0_1017_2488">
<rect width="31.9811" height="31.9811" fill="white" transform="translate(84.552 0.342896)"/>
</clipPath>
<clipPath id="clip1_1017_2488">
<rect width="31.9811" height="31.9811" fill="white" transform="translate(122.524 0.342896)"/>
</clipPath>
<clipPath id="clip2_1017_2488">
<rect width="31.9811" height="31.9811" fill="white" transform="translate(160.495 0.342896)"/>
</clipPath>
<clipPath id="clip3_1017_2488">
<rect width="31.9811" height="31.9811" fill="white" transform="translate(198.467 0.342896)"/>
</clipPath>
</defs>
</svg>
