<svg width="84" height="84" viewBox="0 0 84 84" fill="none" xmlns="http://www.w3.org/2000/svg">
<path d="M10.6528 76.6741C11.6392 75.9928 12.4716 75.3856 13.3069 74.7783C16.1121 72.8825 18.6152 70.7586 21.041 68.3326C22.0275 67.3462 23.2389 66.5878 23.9973 65.4504C25.816 62.6452 28.091 60.1421 29.4566 57.1088C29.5336 56.8807 29.7587 56.5786 29.5336 56.1995C28.6982 56.1224 27.8659 56.0484 27.0305 56.0484C23.9972 56.1995 21.041 55.9714 18.008 56.1995C17.0216 56.2765 15.8841 56.1224 14.8977 56.0484C14.7466 56.0484 14.5185 56.0484 14.5185 55.9714C13.9883 54.9109 12.7738 55.136 11.9415 54.6828C11.6393 54.5318 11.4112 54.3037 11.2602 54.0015C10.5018 52.1828 10.0456 50.2099 9.51541 48.3141C9.4384 48.012 9.36434 47.5558 9.51541 47.3277C10.1967 45.8881 9.59243 44.3715 9.97159 43.0059C10.3508 41.4892 9.89457 40.0497 9.89457 38.607C9.97159 34.2852 9.97159 30.1146 10.2737 25.8665C10.4248 24.1988 10.2737 22.5311 10.2737 20.8604C10.2737 20.5582 10.2737 20.3301 10.0456 20.102C9.58947 19.6459 9.66649 18.9646 9.89457 18.5084C10.5759 16.9147 11.3342 15.398 12.3976 14.0355C12.5487 13.8844 12.6257 13.7333 12.7768 13.6563C14.9007 12.5959 16.6454 10.9252 18.6923 9.71367C20.6651 8.57619 22.635 8.49914 24.6818 8.19703C28.0172 7.66679 31.3556 7.4387 34.6909 7.36166C38.6335 7.28464 42.5759 7.21059 46.4448 6.90548C49.099 6.6774 51.7531 6.52632 54.4846 6.82847C56.9106 7.05656 59.3366 6.82847 61.8397 6.97954C64.3427 6.98547 66.6177 7.59271 68.9696 7.97188C69.879 8.12295 70.5633 8.7302 71.0165 9.56557C71.6978 10.703 72.305 11.8405 72.4561 13.2801C72.4561 13.6593 72.6071 13.9614 72.9863 14.1895C73.5935 14.6457 73.4425 15.404 73.4425 16.0853C73.3655 17.9041 73.7446 19.6488 73.9727 21.4706C74.2748 23.5174 74.3519 25.6413 74.3519 27.7652C74.4289 31.4058 73.8216 35.0463 74.0497 38.6835V39.3648C73.9727 39.8951 74.808 40.0461 74.5059 40.5794C74.2778 41.0355 74.0497 41.4147 73.9757 41.945C73.8986 42.7033 73.5195 43.5386 74.0527 44.297C74.1297 44.448 74.1297 44.7531 74.0527 44.9783C73.5965 46.9511 73.0663 48.8469 71.7777 50.5146C70.5632 52.0312 69.4257 53.6249 68.2142 55.1416C67.9861 55.4437 67.9121 55.7488 67.4559 55.3697C67.3789 55.2926 67.1538 55.2186 67.0767 55.2926C65.7112 55.7488 64.1945 55.3697 62.8289 55.8229C62.2217 56.051 61.5404 55.9739 60.8561 56.051C57.9739 56.128 55.0176 56.128 52.1354 56.202C49.2532 56.2791 46.7501 57.4906 44.7033 59.4634C42.2002 61.8894 39.6231 64.2414 36.7409 66.2113C34.7681 67.4998 32.8723 68.8654 30.8254 70.0029C29.5369 70.7612 28.0202 71.3684 26.6546 72.1268C25.8193 72.657 24.9099 73.1872 24.0776 73.6434C23.3963 74.0226 22.863 74.4788 21.9537 74.3247C21.4975 74.2477 20.8932 74.7039 20.36 74.9319C18.1621 75.9924 15.81 76.6767 13.384 77.1299C12.4747 77.432 11.5623 77.5094 10.6528 76.6741ZM67.225 43.462C67.302 42.4015 67.0739 41.3381 67.225 40.2006C67.4531 38.4558 67.6812 36.6371 67.6042 34.8923C67.4531 32.2382 67.5272 29.507 67.6042 26.8526C67.6812 23.5912 67.8323 20.3299 67.7552 17.0718C67.7552 15.9343 67.225 14.9479 66.3897 14.3406C65.7084 13.8104 64.796 13.3542 64.0377 12.9011C63.8866 12.824 63.6585 12.824 63.5074 12.75C62.521 12.5989 61.5346 12.4478 60.5512 12.3708C56.9106 11.9917 53.1961 12.2938 49.5555 12.2938C47.5087 12.2938 45.4618 12.3708 43.4119 12.5959C39.9995 12.8981 36.51 12.8981 33.0973 13.2773C29.3827 13.6564 25.6651 13.6564 21.9507 14.1126C19.2966 14.4148 16.5654 14.4148 14.2166 15.9314C13.6864 16.2335 13.3072 16.5386 13.0791 17.1459C12.1697 18.8906 11.8646 20.7094 12.3978 22.6822C12.4748 23.0614 12.4748 23.3635 12.3208 23.6687C11.9416 24.35 12.0187 25.1083 11.9416 25.9436C11.9416 27.4603 11.9416 28.8999 11.8646 30.4165C11.7136 33.6008 12.0157 36.7112 11.9416 39.8955C11.8646 42.9288 12.1697 45.885 12.2438 48.918C12.2438 49.9044 12.5459 50.8138 12.7 51.7232C12.777 52.4045 13.4583 52.6326 13.5353 53.3169C13.6123 53.619 14.0656 53.1658 14.4447 53.1658C14.5217 53.1658 14.6728 53.1658 14.6728 53.2428C15.3541 54.2292 16.4175 54.0782 17.404 54.0782C21.8028 54.0011 26.2755 53.5479 30.6746 54.9135C31.5839 55.2157 31.735 55.2927 31.5099 56.2791C31.4329 56.5813 31.3589 56.8093 31.2078 57.1145C30.6005 58.252 30.0703 59.4665 29.312 60.5269C29.0098 60.9831 28.4766 61.5133 28.5537 61.8925C28.7818 62.9529 28.0234 63.3321 27.5672 63.8653C27.037 64.4726 26.5068 65.0799 25.9736 65.7611C25.0642 66.8986 24.2288 68.1872 23.1684 69.2506C21.4236 70.9183 19.6789 72.512 17.7091 73.9516C17.1788 74.3308 16.6486 74.7099 16.1924 75.4683C16.7997 75.2402 17.1018 75.1661 17.407 74.938C18.6955 74.0286 20.2121 73.4984 21.5777 72.7401C25.1412 70.9213 28.5537 68.9485 31.3585 65.9923C32.345 64.9318 33.2543 63.7944 34.6939 63.3381C35.0731 63.1871 35.4523 62.7309 35.6804 62.3517C36.3617 60.9121 37.5762 59.9997 38.6366 58.9393C39.3179 58.332 39.9251 57.6507 40.5324 57.0435C40.6835 56.8924 40.9886 56.5873 40.5324 56.4362C40.3043 56.3592 40.0022 56.4362 40.0022 56.1341C40.0022 55.8319 40.3043 55.8319 40.5324 55.8319C42.8074 55.6039 45.0823 55.6039 47.2062 54.7715C47.3573 54.6945 47.5084 54.7715 47.6624 54.7715C51.1519 54.5434 54.6383 54.5434 58.128 54.6945C61.0102 54.8456 63.7383 54.6175 66.2412 53.0268C66.6974 52.7247 66.9996 52.4966 67.1506 52.0404C67.6068 50.9799 67.6808 49.9165 67.6808 48.856C67.7579 46.43 67.8319 44.078 68.06 41.575C67.2987 41.8682 67.3761 42.7036 67.225 43.462ZM71.7749 45.2807C71.2447 46.1161 70.8655 46.9484 70.3353 47.2536C69.0468 47.8608 69.5 48.7702 69.5 49.8306C70.3353 48.8442 71.0166 47.9348 71.852 47.2536C72.4592 46.7974 72.7613 46.1161 72.8384 45.4348C73.1405 43.0088 73.5197 40.5057 72.4592 38.1537C70.4124 38.912 69.503 40.7308 70.1843 43.0058C70.7915 42.7777 70.8656 42.0964 71.3218 41.7912C71.7779 41.4121 72.1571 41.0329 72.8384 41.5631C71.7009 42.2444 71.2447 43.4589 70.1843 44.0662C69.654 44.3683 69.8051 45.0526 69.577 45.5058C69.2749 45.962 69.2749 46.4152 69.5 46.9454C70.3324 46.4181 70.4093 45.2037 71.7749 45.2807ZM60.4744 10.5489C61.763 10.851 62.5983 10.7 63.1286 9.79057C63.4307 9.3344 63.8869 9.03225 64.266 8.73014C64.5682 8.50205 64.9473 8.19991 65.4806 8.57907C64.8733 9.41443 63.6618 9.71655 63.3567 10.854C65.3295 11.5353 66.467 10.0957 67.9836 8.95823C67.2253 9.03524 66.7691 8.88121 66.467 8.50205C65.8597 7.74373 64.9503 7.97182 64.115 7.82075C63.4337 7.74373 63.3567 8.19991 63.1286 8.65611C63.0515 8.73313 62.9005 8.8842 62.8264 8.8842C61.4608 8.65315 61.4609 9.86762 60.4744 10.5489ZM69.8791 26.4736C69.8791 27.0038 69.8021 27.2319 69.8021 27.46C69.8021 27.6881 69.7251 27.9903 69.9532 28.0673C70.2553 28.2184 70.5604 27.9903 70.7115 27.8392C71.0907 27.383 71.3928 26.8528 71.849 26.5507C72.9094 25.8694 72.9865 24.7319 73.1375 23.6684C73.2145 23.2893 73.3656 22.682 72.9094 22.4539C72.3792 22.1518 72.2281 22.8331 71.923 23.0612C71.6949 23.2892 71.4668 23.5173 71.2417 23.7425C70.4093 24.5778 69.5741 25.4131 69.8791 26.4736ZM72.7613 30.4933C72.6843 30.4933 72.6103 30.4163 72.5333 30.4163C71.4728 30.8725 71.0166 32.084 69.8791 32.6142C69.7281 32.6912 69.7281 32.9164 69.7281 33.1444C69.7281 33.7517 69.7281 34.2819 69.8051 34.8892C69.8821 35.4965 70.4123 35.7246 70.7915 35.2684C71.3217 34.6611 71.8519 34.2079 72.4592 33.6747C72.6103 33.5236 72.6873 33.3725 72.6873 33.1444C72.7613 32.238 72.9865 31.3287 72.7613 30.4933ZM69.9532 23.8965C70.9396 23.2893 71.4699 22.3799 72.1511 21.7726C73.3657 20.6352 73.3657 20.333 72.2281 19.0415C71.4698 19.4976 71.2417 20.4811 70.5604 20.9373C69.3489 21.7726 69.8021 22.7591 69.9532 23.8965ZM72.6844 26.9298C71.4699 27.309 71.5469 29.2818 69.8022 28.6746C69.8022 29.4329 69.7251 30.1912 69.8022 30.8725C69.8792 31.4027 70.1813 31.4797 70.5605 31.1006C70.9396 30.7984 71.1677 30.3422 71.5469 30.1141C72.8354 29.3558 73.0635 28.2954 72.6844 26.9298ZM71.6239 12.8236C69.5771 13.884 68.8928 15.6287 70.0303 17.2964C70.3324 16.9173 70.6375 16.387 71.0167 16.236C72.3052 15.7058 72.1542 14.7964 71.852 13.7329C71.775 13.4308 71.775 13.2027 71.6239 12.8236ZM53.7261 7.59236C51.149 7.51534 50.3136 8.04853 49.4783 10.0184C50.8438 10.3975 51.8303 9.94136 52.5886 8.80385C52.8907 8.35063 53.2699 8.0456 53.7261 7.59236ZM59.1854 7.51534C57.4406 7.36427 56.3031 8.04557 55.3167 10.0184C56.1521 10.3976 56.8334 10.3976 57.4406 9.63924C58.0479 8.88092 58.6552 8.19965 59.1854 7.51534ZM70.0301 38.9856C70.7884 38.2273 71.2446 37.546 71.9259 37.1669C72.7613 36.7107 72.7613 36.0294 72.8353 35.3481C72.8353 35.197 72.9123 34.969 72.7583 34.8179C72.5302 34.6668 72.3021 34.7409 72.151 34.969C71.9229 35.197 71.6948 35.4992 71.5438 35.7273C71.2416 36.3345 70.8625 36.5626 70.1782 36.1834C70.0301 37.1669 70.0301 37.9252 70.0301 38.9856ZM71.3186 12.2162C70.4833 10.2433 70.4093 10.2433 68.9666 11.5349C68.3594 12.0651 68.2083 12.4442 68.7386 13.0515C68.9666 13.2796 68.7385 13.7328 69.2688 13.8869C69.879 13.2796 70.2582 12.3702 71.3186 12.2162ZM59.1855 10.6254C59.2625 10.6254 59.4136 10.5484 59.5647 10.4744C60.4 9.639 61.1584 8.80667 61.9167 7.9713C61.9937 7.89429 61.9937 7.74322 61.9167 7.74322C61.8397 7.6662 61.6145 7.51513 61.5375 7.59214C60.4771 8.12238 59.3396 8.50152 58.5813 9.48794C58.4302 9.71603 58.1251 9.94412 58.3532 10.2463C58.5783 10.4744 58.8063 10.6254 59.1855 10.6254ZM69.9529 20.2553C70.7883 19.574 71.3925 18.7387 72.2279 18.1314C72.53 17.9034 72.456 17.3731 72.2279 17.071C71.9998 16.8429 71.7717 16.6148 71.3185 16.9199C70.4091 17.4502 69.7278 18.8898 69.9529 20.2553ZM44.0191 8.19957C43.9421 8.12256 43.9421 8.0485 43.868 7.89743C42.1233 8.0485 40.9858 9.11195 39.7743 10.4745C41.368 10.4745 41.368 10.4745 41.8982 10.0183C42.5795 9.41108 43.2608 8.8038 44.0191 8.19957ZM52.5889 9.94136C54.1826 10.1694 55.0149 9.5622 56.3805 7.36428C54.4847 7.4413 53.5753 8.65282 52.5889 9.94136ZM34.9966 10.6997C35.6039 10.8508 36.2112 11.0018 36.7414 10.4716C37.3486 9.79029 37.9559 9.10601 38.5601 8.42473C36.9664 8.35068 36.4362 8.57875 34.9966 10.6997ZM27.0343 10.6256C28.4739 10.8537 29.8394 10.0184 30.5978 8.65278C28.9301 8.27362 27.9436 9.26003 27.0343 10.6256ZM44.7039 10.0184C46.3716 10.2465 46.7507 8.65279 47.7372 7.89447C46.1435 7.82042 45.4622 9.03195 44.7039 10.0184ZM40.9864 8.19962C40.9123 8.12261 40.8353 8.04559 40.7583 7.89452C39.5438 8.57582 38.4833 9.4882 37.4229 10.6257C38.1812 10.8538 38.6374 10.7768 39.0166 10.2465C39.6209 9.63928 40.305 8.95794 40.9864 8.19962ZM32.2657 10.6256C32.8729 10.8537 33.4802 11.0048 33.8594 10.7027C34.4666 10.1724 35.1479 9.56517 35.6041 8.72981C34.0104 8.57874 33.3291 9.71626 32.2657 10.6256ZM49.9353 7.89447C48.7208 8.27363 47.5093 8.72984 46.902 10.0924C48.5697 10.1694 49.0999 8.80385 49.9353 7.89447ZM29.9907 10.6256C31.8095 11.0048 32.4167 9.41111 33.4032 8.50174C32.0376 8.80388 30.9001 9.48816 29.9907 10.6256ZM39.0163 61.9631C40.684 61.2818 41.8985 60.5976 42.8079 59.309C41.4423 59.9163 40.0767 60.4465 39.0163 61.9631ZM24.3033 10.7765C25.82 10.9276 26.4272 10.5485 27.3366 8.88074C25.971 9.03182 25.2127 9.94118 24.3033 10.7765ZM22.1794 9.79012C21.0419 10.1693 19.9045 10.3204 18.844 11.2297C20.4377 11.4578 21.4211 11.1557 22.1794 9.79012ZM24.6825 9.3369C23.545 9.3369 23.0148 10.0952 22.2565 11.0046C23.545 11.0046 24.0752 10.1692 24.6825 9.3369ZM45.3854 57.1111C43.8687 57.1881 43.3385 57.4132 42.6542 58.2485C44.704 57.8694 44.704 57.8694 45.3854 57.1111ZM67.9841 11.307C68.0611 11.307 68.0611 11.384 68.1352 11.384C68.6654 10.8538 69.2726 10.3976 69.8029 9.86739C69.0445 9.33716 68.9675 9.26015 68.7424 9.79038C68.4373 10.3206 68.2122 10.8538 67.9841 11.307ZM36.1346 64.6943C38.2585 63.9359 38.2585 63.9359 38.7117 63.0266C37.7253 63.4028 36.893 63.9359 36.1346 64.6943ZM67.6049 10.3204C67.0747 10.4715 66.6955 10.7766 66.4674 11.0788C66.3164 11.2298 66.2394 11.5349 66.4674 11.686C66.6955 11.8371 66.9236 11.763 67.0747 11.609C67.3768 11.2328 67.6049 10.9277 67.6049 10.3204ZM33.4805 66.5901C33.1014 67.0462 32.7992 67.4254 32.266 67.9557C33.2524 67.8016 33.4805 67.2714 33.4805 66.5901ZM42.9595 10.1695C43.5668 9.86739 43.5668 9.86739 44.02 9.18312C43.4897 9.48822 43.1106 9.63929 42.9595 10.1695ZM70.3334 50.3605C70.8636 50.2094 70.9406 49.8303 71.0917 49.4511C70.6385 49.6022 70.4104 49.8303 70.3334 50.3605Z" fill="#F36F21"/>
<path d="M30.2953 34.2855C30.3724 35.8022 29.537 36.8626 28.0204 37.3959C27.4901 37.5469 27.034 37.775 26.5808 37.9261C24.836 38.4563 23.0173 37.9261 22.0309 36.6376C20.9704 35.198 20.8163 33.1481 21.8028 31.6314C21.8798 31.4804 22.0309 31.3293 22.1819 31.2523C23.8496 30.1148 25.6714 29.5075 27.7183 30.1918C29.309 30.645 30.3694 32.3897 30.2953 34.2855ZM27.108 36.2584C28.5476 36.2584 29.5341 34.5136 28.9268 33.2251C28.6987 32.6949 28.3966 32.2387 27.9404 31.7855C27.3331 31.1042 27.1821 31.1042 26.5748 31.7085C26.3467 31.9366 26.1186 32.2387 25.7394 32.1647C25.2092 32.1647 24.9811 32.4668 24.8301 32.923C24.1517 34.3626 25.5174 36.3325 27.108 36.2584ZM24.3798 31.7085C23.3934 31.7855 22.7121 32.1646 22.333 33.1481C23.8496 33.3761 23.8496 33.3761 24.3798 31.7085ZM22.7862 35.346C23.7726 34.6647 23.7726 34.6647 23.6955 34.0575C23.3164 34.2856 23.0142 34.6648 22.7862 35.346ZM23.6215 36.3325C23.8496 36.1814 24.0007 36.1044 24.1517 36.0303C24.4539 35.8793 24.5309 35.5741 24.2288 35.349C24.0007 35.1209 23.7726 35.426 23.6985 35.5771C23.6215 35.7252 23.3934 35.8793 23.6215 36.3325Z" fill="#F36F21"/>
<path d="M40.6062 38.3054C40.227 38.3054 39.8478 38.2284 39.4687 38.2284C37.4958 38.0003 36.3584 36.9398 36.1333 34.967C36.0563 34.2087 36.1333 33.4503 36.6635 32.9201C37.4989 32.0107 38.4823 31.1754 39.6198 30.7222C39.7708 30.6452 39.9989 30.5711 40.15 30.5711C40.3781 30.4941 44.1697 31.3295 44.3978 31.4805C45.3072 32.1618 45.2332 33.2253 45.1561 34.1346C44.928 35.9534 43.6395 37.1679 42.1999 38.1543C41.7437 38.4565 41.1365 38.2284 40.6062 38.3054ZM38.9385 36.8628C39.4687 37.319 39.9989 37.4701 40.4551 36.7858C40.6062 36.5577 40.6062 36.3296 40.3781 36.1786C40.15 36.0275 39.9989 36.1786 39.9219 36.3296C39.6968 36.7888 39.3947 36.8628 38.9385 36.8628C39.0895 36.5607 39.2406 36.2556 39.3946 35.8764C39.4716 35.7253 39.6227 35.5743 39.3946 35.4202C39.1665 35.3432 38.9384 35.0411 38.6363 35.3432C38.4082 35.5713 38.1801 35.8735 38.1801 36.1786C38.1801 36.5607 38.4823 36.8628 38.9385 36.8628ZM42.0488 32.2388C40.9113 32.2388 40.0759 33.1482 40.0759 34.3627C40.0759 35.2721 40.8343 35.9564 42.0488 35.9564C42.8842 36.0334 43.7935 35.2751 43.7935 34.5168C43.8676 33.3764 43.0323 32.2388 42.0488 32.2388ZM37.4218 35.4232C38.7104 34.5138 39.5457 33.5274 39.7738 32.1618C39.0896 33.1482 37.724 33.7555 37.4218 35.4232Z" fill="#F36F21"/>
<path d="M53.1957 37.9998C51.2229 37.9998 50.6187 37.5436 49.9343 35.7248C49.3271 34.1311 49.6322 32.7686 50.9208 31.7051C51.7561 31.0238 52.7395 30.4166 53.803 30.1114C55.3196 29.6553 56.4571 29.9604 57.5176 31.0979C59.1112 32.9166 58.8061 35.4967 56.8362 36.7853C55.3196 37.8486 54.7124 37.9998 53.1957 37.9998ZM54.8634 35.7248C55.6218 35.8018 56.229 35.5737 56.7592 35.3457C57.2154 35.1946 57.4405 34.8154 57.5176 34.3592C57.6686 33.752 57.0614 32.2353 56.5311 31.9332C56.3801 31.8562 56.229 31.7821 56.152 31.8562C55.7728 32.3124 55.4707 32.1584 55.1655 31.7051C54.8634 31.403 54.5583 31.6281 54.3302 31.9332C53.7229 32.5405 53.4208 33.2988 53.2697 34.0571C53.0417 35.0435 53.2697 35.4967 54.3302 35.6508C54.4842 35.7249 54.7864 35.7248 54.8634 35.7248ZM50.8437 35.8789C52.1323 34.2852 52.1323 34.2852 52.0583 33.2247C51.6791 34.2082 50.6927 34.5874 50.8437 35.8789ZM52.1323 36.8623C52.5884 36.9393 52.8906 36.5602 52.8906 36.2551C52.9676 35.8759 52.7395 35.4197 52.2833 35.4968C51.8272 35.5738 51.602 36.027 51.525 36.4061C51.528 36.7112 51.8301 36.7883 52.1323 36.8623ZM51.0718 33.2247C51.528 32.9966 51.8302 32.6175 52.1323 32.0102C51.451 32.3124 51.1488 32.6915 51.0718 33.2247ZM54.3332 36.7882C54.4102 36.5601 54.2562 36.5601 54.1051 36.4861C53.877 36.4091 53.649 36.4861 53.4979 36.7882C53.4209 36.9393 53.5749 37.0904 53.726 37.0904C54.0281 37.1674 54.1821 37.0163 54.3332 36.7882Z" fill="#F36F21"/>
</svg>
