<svg width="23" height="23" viewBox="0 0 23 23" fill="none" xmlns="http://www.w3.org/2000/svg">
<g clip-path="url(#clip0_996_1272)">
<path fill-rule="evenodd" clip-rule="evenodd" d="M10.6769 1.32925C10.7477 1.17183 10.9041 1.06952 11.0763 1.06952C11.2485 1.06952 11.4049 1.17184 11.4748 1.32925L14.3033 7.72249C14.38 7.89467 14.5424 8.01272 14.7303 8.03242L21.6852 8.74768C21.8564 8.76539 22.001 8.88248 22.0551 9.04678C22.1083 9.2101 22.0591 9.39016 21.9312 9.50526L16.7245 14.1727C16.5848 14.2976 16.5228 14.4895 16.5621 14.6735L18.0311 21.5095C18.0675 21.6778 18.0006 21.8519 17.8608 21.9532C17.7221 22.0546 17.5352 22.0644 17.3856 21.9778L11.3387 18.4683C11.1764 18.3728 10.9757 18.3728 10.8124 18.4683L4.76544 21.9778C4.61589 22.0644 4.42995 22.0546 4.29024 21.9532C4.15053 21.8519 4.08362 21.6777 4.12003 21.5095L5.58894 14.6735C5.62829 14.4895 5.56631 14.2976 5.4266 14.1727L0.21992 9.50526C0.0920175 9.39015 0.0428221 9.21009 0.0959518 9.04678C0.150064 8.88248 0.294693 8.76539 0.466882 8.74768L7.4218 8.03242C7.60874 8.01274 7.77107 7.89468 7.84781 7.72249L10.6763 1.32925H10.6769Z" fill="#73848D"/>
</g>
<defs>
<clipPath id="clip0_996_1272">
<rect width="22" height="22" fill="white" transform="translate(0.0762329 0.562988)"/>
</clipPath>
</defs>
</svg>
