<svg width="25" height="25" viewBox="0 0 25 25" fill="none" xmlns="http://www.w3.org/2000/svg">
<path opacity="0.7" d="M12.8041 20.5291C10.7292 20.5291 8.65439 20.5121 6.58397 20.5376C5.42984 20.5547 4.55234 20.1415 4.06382 19.1021C3.57104 18.0457 3.89956 17.0916 4.65169 16.2822C5.91388 14.9234 7.55648 14.1695 9.28121 13.5731C10.6169 13.113 10.6861 12.9129 9.83882 11.8479C8.58094 10.2676 8.17028 8.50416 8.74088 6.56598C9.34172 4.5299 11.2048 3.32863 13.2883 3.57573C15.5015 3.83982 16.9755 5.41588 17.1483 7.69897C17.2737 9.34318 16.742 10.7658 15.6829 12.0183C15.0259 12.7978 15.1599 13.0874 16.0893 13.4921C17.4249 14.0714 18.7433 14.7061 20.0055 15.4174C20.5328 15.7156 20.9608 16.2353 21.3325 16.7294C21.9333 17.5216 21.9939 18.4119 21.4924 19.2893C21.0126 20.1285 20.2692 20.5289 19.2879 20.5289C17.1266 20.5203 14.9655 20.5248 12.8041 20.5291Z" fill="#2B3C4A"/>
</svg>
