<svg width="25" height="25" viewBox="0 0 25 25" fill="none" xmlns="http://www.w3.org/2000/svg">
<path d="M22.3877 19.3332L18.4929 15.4385C18.3171 15.2627 18.0788 15.1651 17.8287 15.1651H17.192C18.2702 13.7861 18.9109 12.0517 18.9109 10.1649C18.9109 5.67638 15.2739 2.0395 10.7853 2.0395C6.29665 2.0395 2.65967 5.67638 2.65967 10.1649C2.65967 14.6533 6.29665 18.2902 10.7853 18.2902C12.6721 18.2902 14.4066 17.6496 15.7856 16.5714V17.2081C15.7856 17.4581 15.8833 17.6964 16.0591 17.8722L19.9539 21.7669C20.3211 22.1341 20.9149 22.1341 21.2782 21.7669L22.3838 20.6614C22.751 20.2942 22.751 19.7004 22.3877 19.3332ZM10.7853 15.1651C8.02334 15.1651 5.7849 12.9306 5.7849 10.1649C5.7849 7.40302 8.01944 5.16464 10.7853 5.16464C13.5472 5.16464 15.7856 7.39911 15.7856 10.1649C15.7856 12.9267 13.5511 15.1651 10.7853 15.1651Z" fill="#2B3C4A" fill-opacity="0.7"/>
</svg>
