<svg width="85" height="85" viewBox="0 0 85 85" fill="none" xmlns="http://www.w3.org/2000/svg">
<path d="M11.5563 53.9127C13.0414 54.695 14.2943 55.9479 15.8588 56.5712C17.1881 57.1182 18.441 58.0563 19.7702 58.8386C21.7259 60.012 23.6021 61.2649 25.402 62.6705C27.6693 64.3909 29.9398 65.9554 32.363 67.3641C35.0215 68.9287 37.4478 70.9639 40.1062 72.6842C40.5768 72.9959 40.968 73.0754 41.4355 72.9195C42.0619 72.6842 42.6884 72.4489 43.2353 72.0578C46.8351 69.711 50.3553 67.2846 53.7163 64.7056C55.3603 63.4527 57.157 62.4383 58.8011 61.1854C61.6185 58.8386 64.5123 56.5712 67.3263 54.3007C69.3615 52.7362 71.6288 51.4069 72.8817 48.9043C73.4287 47.7309 74.4463 46.7133 75.0727 45.5399C75.5433 44.5223 76.1667 43.6637 76.6373 42.6461C76.7931 42.3344 76.8726 42.1755 77.0284 42.0197C76.949 41.708 76.949 41.3932 77.0284 41.0021C76.7931 40.9226 76.6373 40.8462 76.4814 40.6904C76.0108 40.0639 75.308 40.2992 74.761 40.2992C73.6671 40.4551 72.5701 40.9257 71.3966 41.0021C70.6144 41.0021 69.9116 41.0021 69.1293 41.0815C67.5647 41.161 66.0797 40.9257 64.5151 40.9257C64.0445 40.9257 64.0445 40.7698 64.124 40.3787C64.2798 39.3611 64.5151 38.423 64.4357 37.4054C64.2798 33.4176 64.671 29.6621 64.671 25.8301C64.671 24.5772 64.5915 23.3274 64.5151 22.154C64.3593 20.1983 64.124 18.3221 63.9681 16.3664C63.8123 14.3312 63.8887 12.2992 63.1859 10.4199C63.1064 10.1846 63.03 9.71704 62.6389 9.79343C62.3272 9.79343 62.5594 10.264 62.3272 10.4963C61.6244 9.63451 60.6831 9.79343 59.745 9.94928C58.8069 10.1051 57.9452 10.4199 57.0071 9.94928C56.8512 9.86983 56.6954 9.86983 56.4601 9.86983C54.5014 10.0287 52.4662 10.1846 50.4341 10.1051C49.1049 10.1051 47.7757 10.1051 46.4433 9.94928C44.5671 9.71399 42.7672 9.94928 40.9674 10.0287C38.7 10.1082 36.4295 10.264 34.1622 9.94928C33.1446 9.79343 32.0507 9.71399 31.0331 10.1051C30.5625 10.261 30.095 10.6521 29.6244 10.5757C29.2332 10.5757 29.0774 10.6552 28.9215 10.8874C26.8864 13.4695 24.7748 15.9722 22.7428 18.5543C22.8223 18.866 22.7428 19.2572 22.6634 19.5719C22.8986 19.6514 22.7428 19.8072 22.7428 19.9631C22.7428 21.7629 22.6634 23.5628 22.6634 25.3595C22.6634 26.9241 23.1339 28.4886 23.0545 30.0532C22.8986 32.1647 23.4456 34.2762 22.5839 36.3908C22.5839 36.4703 22.5839 36.6261 22.6634 36.7025C22.8986 37.0142 22.8192 37.4054 22.8986 37.7965C22.9781 38.4229 22.8986 39.0494 23.1339 39.6727C23.2898 40.2197 23.2134 40.8461 23.2134 41.3931C23.2134 41.7048 23.1339 42.0195 22.6664 42.1753C21.7283 42.4106 20.8665 42.5665 19.9284 42.5665C19.0667 42.6459 18.2081 42.487 17.3463 42.487C16.1729 42.487 14.9995 42.1753 13.9055 42.3312C13.0438 42.4106 12.2615 42.0959 11.4029 42.0195C11.3234 42.4106 11.1676 42.8018 10.8559 43.1134C10.6206 45.2249 10.3853 47.3365 9.99415 49.4511C9.5205 51.4893 9.7558 52.9744 11.5556 53.9125L11.5563 53.9127ZM14.5265 53.6011C14.2148 53.4452 13.9795 53.2894 13.6648 53.1305C14.6029 53.4422 15.6999 52.6599 16.7144 53.2863C16.1674 53.6775 15.541 53.4422 15.1498 53.9127C15.0765 53.9922 14.6854 53.6805 14.5265 53.6011H14.5265ZM16.4058 49.8455C16.8764 50.0014 17.4234 49.3749 17.6587 50.2366C17.7381 50.4719 17.6587 50.5483 17.4234 50.5483C16.6411 50.7072 16.6411 50.7836 16.4058 49.8455H16.4058ZM16.7175 54.8539C16.4058 54.7744 16.1705 54.5422 15.8557 54.3833C15.8557 54.3038 15.9352 54.3038 15.9352 54.2274C16.2469 54.2274 16.5616 54.3069 16.7969 54.2274C17.1086 54.148 17.4234 54.3833 17.3439 54.6186C17.3439 54.8539 16.9528 54.9303 16.7175 54.8539ZM18.282 52.4276C18.2026 52.1923 17.9703 51.957 17.8114 51.7247C17.732 51.5689 17.185 51.6453 17.5762 51.413C17.732 51.2572 17.5762 50.7866 17.9673 50.9425C18.279 51.0219 18.5937 51.413 18.5143 51.5689C18.1231 52.1159 18.6701 51.96 18.826 52.1159C18.9054 52.1953 19.0613 52.2717 19.1377 52.3512C19.2171 52.4306 19.2935 52.507 19.2171 52.6629C19.1377 52.8187 18.9818 52.8187 18.9054 52.8187C18.5968 52.7393 18.3615 52.6629 18.282 52.4276V52.4276ZM18.9879 54.1479C18.6762 53.8363 19.6143 53.7568 19.1438 53.4451C18.9085 53.2893 18.5968 53.2893 18.5968 52.8981C19.4585 52.8981 20.2408 53.9157 20.3172 54.9333C20.0055 54.8539 19.7702 54.698 19.5349 54.6216C19.2201 54.5391 19.1437 54.3038 18.9879 54.148L18.9879 54.1479ZM19.6113 56.4183C20.6289 56.3389 20.8642 56.3389 21.3317 56.73C20.7083 56.8859 20.0818 57.277 19.6113 56.4183ZM22.9757 54.0715C22.7404 54.3068 22.5051 53.9921 22.3493 53.9157C22.0376 53.6804 22.3493 53.604 22.5051 53.5245C22.8168 53.2892 22.5051 53.2128 22.3493 53.1334C21.4875 52.5864 21.4875 52.5864 21.02 51.6483C21.8818 52.2748 22.5846 52.7423 22.9757 53.5245C23.0552 53.6009 23.211 53.8362 22.9757 54.0715H22.9757ZM23.4463 55.0096C23.4463 55.2449 23.211 55.3213 23.0552 55.2449C22.664 55.1655 22.5846 54.7743 22.5082 54.4626C22.5082 54.3068 22.664 54.2273 22.8199 54.2273C23.211 54.3832 23.4463 54.6185 23.4463 55.0096ZM21.2553 53.992C21.3347 54.1479 21.4111 54.3037 21.4906 54.539C20.9436 54.7743 20.6288 54.3832 20.6288 54.0684C20.7083 52.9745 21.02 53.6804 21.2553 53.992L21.2553 53.992ZM21.4111 57.6681C22.0376 57.7476 22.664 57.7476 23.211 57.824C23.4463 57.824 23.6021 57.9798 23.6021 58.2151C23.5227 58.4504 23.2904 58.2945 23.1315 58.2945C22.5082 58.374 21.8817 58.374 21.4112 57.6681H21.4111ZM24.3049 59.6238C24.1491 59.9355 23.8343 59.468 23.5227 59.3885C23.2874 59.3091 23.1315 59.1532 22.9757 58.8415C23.2874 58.7621 23.5227 58.5298 23.7579 58.7621C24.1491 58.921 24.4638 59.3121 24.3049 59.6238V59.6238ZM24.9314 56.8858C24.8519 56.8064 24.7755 56.6505 24.8519 56.5741C24.9314 56.4947 25.0872 56.4947 25.1636 56.5741C25.5547 56.73 25.7106 57.0447 25.7106 57.5917C25.3225 57.4328 25.2461 57.1211 24.9314 56.8858L24.9314 56.8858ZM25.7931 58.921C26.5754 58.4504 25.7931 58.4504 25.5578 58.2946C25.402 58.2151 25.3225 58.1387 25.3225 57.9034C25.8695 57.824 26.6518 58.5299 26.5754 58.9974C26.5754 59.1532 26.496 59.1532 26.4196 59.1532C26.1843 59.1532 26.0284 59.0738 25.8726 59.0738C25.7931 59.1563 25.7137 58.9974 25.7931 58.921L25.7931 58.921ZM26.8871 57.5918C26.4959 57.5918 26.2606 57.2801 26.1842 56.8889C26.6548 56.8889 26.8871 57.0448 27.046 57.3595C27.2018 57.5123 27.0429 57.5918 26.8871 57.5918L26.8871 57.5918ZM27.3576 58.2151C27.4371 58.5268 27.5135 58.8416 27.5929 59.2327C27.2018 58.9974 27.1223 58.6063 26.8901 58.2946C26.8107 58.1388 26.7343 57.9829 26.9695 57.9035C27.1223 57.9829 27.2782 57.9829 27.3576 58.2152L27.3576 58.2151ZM26.2607 60.9531C26.1048 60.8737 26.0254 60.7178 26.0254 60.562C26.1048 60.4061 26.2607 60.4825 26.337 60.4825C26.7282 60.562 27.1988 60.562 27.6663 60.9531C27.1224 61.112 26.6518 61.2679 26.2606 60.9531H26.2607ZM29.3133 60.4856C29.1575 60.565 29.0016 60.4856 28.9222 60.4061C28.7663 60.2503 28.6105 60.0944 28.5311 59.8591C28.3752 59.2327 27.9046 58.7652 27.6693 58.1388C28.531 58.1388 28.5311 58.8416 28.8427 59.2327C29.078 59.468 29.1544 59.7797 29.3133 60.0945C29.3133 60.1708 29.4691 60.3297 29.3133 60.4856L29.3133 60.4856ZM28.7663 58.2152C29.2369 58.7622 29.9398 58.918 30.6426 59.0769C30.9542 59.1564 30.9542 59.3122 30.4073 59.7798C30.7984 60.015 31.269 59.8592 31.5807 60.0914C31.6601 60.1709 31.816 60.2473 31.816 60.4031C31.816 60.559 31.6601 60.559 31.5807 60.559C31.269 60.559 30.8778 60.6384 30.7189 60.4795C29.9397 59.7798 29.0779 59.2327 28.7663 58.2152L28.7663 58.2152ZM30.4073 64.0058C30.0956 63.7705 30.0956 63.4588 30.2515 63.2235C30.4868 62.9118 30.7985 63.1441 30.9543 63.3794C31.266 63.7705 31.5807 64.1617 31.5807 64.7881C31.1132 64.397 30.722 64.2411 30.4073 64.0058V64.0058ZM30.7985 61.112C31.6602 60.7209 32.2835 61.2679 33.0658 61.4237C32.5188 61.8148 32.5188 61.8148 32.1277 61.4237C31.7366 61.0326 31.269 61.3443 30.7985 61.112V61.112ZM32.1277 63.6147C32.0483 63.2235 32.363 63.3794 32.5188 63.3794C33.1453 63.4588 33.6923 63.4588 33.8481 64.1617C33.9275 64.3175 33.9275 64.4734 33.8481 64.4734C33.3775 64.4734 32.91 64.4733 32.5188 64.3939C32.2072 64.3175 32.2072 63.9264 32.1277 63.6147V63.6147ZM34.554 66.5085C34.4746 66.5879 34.4746 66.7438 34.3982 66.9791C34.2423 66.3526 33.6953 66.4321 33.3806 66.1173C33.2247 65.9615 33.0689 65.8056 33.0689 65.5703C33.1483 65.335 33.3806 65.4909 33.6159 65.4909C33.8512 65.4909 34.0865 65.4909 34.2423 65.5703C34.9451 65.7262 35.0246 66.0379 34.554 66.5084L34.554 66.5085ZM35.101 65.2556C35.101 64.5528 34.3982 64.238 34.3187 63.5352C35.2568 63.8469 35.7274 64.4733 35.7274 65.2556C35.7274 65.4114 35.648 65.4114 35.4921 65.4114C35.3363 65.4145 35.101 65.4145 35.101 65.2556H35.101ZM35.9627 66.429C35.6511 66.429 35.4158 66.1937 35.3363 65.882C35.2569 65.6467 35.4922 65.7262 35.648 65.6467C35.9597 65.6467 36.195 65.8026 36.2744 66.1173C36.2744 66.429 36.1186 66.429 35.9627 66.429ZM36.745 66.0379C36.745 66.0379 36.745 65.882 36.8245 65.882H37.1362C37.6831 66.1173 37.839 66.5848 37.839 67.2907C37.2126 66.979 37.2126 66.2731 36.7451 66.0378L36.745 66.0379ZM37.6831 65.4909C37.6037 65.4909 37.5273 65.2556 37.6037 65.0997C37.6831 64.9439 37.839 64.788 38.0743 64.9439C38.386 65.1792 38.7771 65.335 39.0919 65.882C38.5449 65.9614 38.2301 65.335 37.6831 65.4909V65.4909ZM41.2034 70.4992C41.1239 70.8904 40.7328 71.1257 40.5005 71.4373C40.5005 71.5168 40.3447 71.4373 40.2653 71.2815C40.03 70.7345 39.7947 70.1876 39.5624 69.6375C39.9536 69.7933 40.3447 70.4992 40.5005 69.4816C40.5005 69.3258 40.7358 69.3258 40.8917 69.4022C41.2034 69.7933 41.2828 70.1081 41.2034 70.4992L41.2034 70.4992ZM41.0475 68.5435C40.9681 68.4641 40.9681 68.3083 41.0475 68.2319C41.2034 68.1524 41.2828 68.2319 41.3592 68.3877C41.5151 68.7788 41.9062 69.17 41.8298 69.7964C41.4387 69.4022 41.2828 68.9347 41.0475 68.5435V68.5435ZM42.7679 69.0111C42.6885 69.0905 42.5326 69.2464 42.4562 69.3228C42.3004 69.4022 42.2209 69.2433 42.1445 69.0875C41.9887 68.6963 41.6739 68.3847 41.6739 67.8346C42.0651 68.2257 42.3768 68.461 42.612 68.6963C42.7679 68.6994 42.9237 68.8552 42.7679 69.0111H42.7679ZM49.8084 65.1792C49.8084 65.2586 49.1056 65.4145 48.7908 65.5703C48.7114 65.5703 48.635 65.4909 48.635 65.4909C48.635 65.4114 48.635 65.2556 48.7144 65.2556C49.4967 64.7086 50.3584 64.1616 51.2171 63.6115C51.2171 63.691 51.2965 63.691 51.2965 63.7674C50.7465 64.0821 50.0436 64.3969 49.8084 65.1792V65.1792ZM57.5517 59.2326C57.6311 58.762 57.9428 58.4504 58.3339 58.2945C58.3339 58.2945 58.5692 58.4504 58.4898 58.4504C58.3339 58.921 57.9428 59.0768 57.5517 59.2326L57.5517 59.2326ZM61.3072 56.4182C61.1514 56.4182 61.0719 56.3388 61.0719 56.1829C61.1514 55.7124 61.5425 55.7124 62.01 55.636C61.8542 56.0271 61.7778 56.4182 61.3072 56.4182H61.3072ZM65.0628 53.8361C64.6716 53.8361 64.5158 54.3067 64.0452 54.3067C64.2805 53.9155 64.5158 53.6803 64.748 53.3686C64.8275 53.2127 64.9833 53.2127 65.0597 53.2891C65.1391 53.3686 65.2155 53.445 65.295 53.6008C65.3744 53.8361 65.2186 53.8361 65.0628 53.8361L65.0628 53.8361ZM67.2538 51.0187C67.1743 51.1745 67.1743 51.4892 66.8626 51.2539C66.6273 51.0981 66.2362 51.0981 66.0804 50.6275C66.392 50.6275 66.7068 50.7834 67.0185 50.707C67.0979 50.6275 67.3301 50.707 67.2537 51.0187H67.2538ZM67.1743 50.3922C67.0949 50.3128 67.2538 50.0805 67.0949 50.0011C67.0154 49.9216 66.8596 49.8452 66.939 49.6894C67.2507 49.8452 67.7213 49.8452 67.8008 50.2364C67.8008 50.5511 67.3302 50.707 67.1743 50.3922H67.1743ZM57.8668 11.6696C57.3962 11.9813 56.8492 11.8254 56.2228 11.6696C56.9287 11.2784 57.3962 11.749 57.8668 11.6696ZM28.9226 21.5278C28.6873 21.6073 28.452 21.4484 28.2198 21.2925C27.9845 21.1367 27.8286 20.8219 27.9845 20.5897C28.1403 20.3544 28.2198 20.0427 28.3756 19.8074C28.4551 19.6516 28.4551 19.3368 28.7668 19.4163C29.002 19.4957 29.0784 19.6516 29.0784 19.8869C29.0784 20.1222 29.0784 20.3574 29.1579 20.6691V20.9044C29.0784 21.1367 29.2343 21.4484 28.9226 21.5278ZM28.8431 25.4392C28.5315 25.3597 28.3726 25.2039 28.2962 24.8922C28.2167 24.5805 27.8256 24.3452 28.0609 24.0304C28.1403 23.951 28.3726 23.8746 28.452 23.951C28.7637 24.2627 28.999 24.7333 28.999 25.2039C29.0784 25.2833 28.9226 25.3597 28.8431 25.4392ZM28.6873 27.6302C28.2962 27.0832 28.6079 26.4568 28.2962 25.9098C28.9226 26.3773 29.0784 27.0832 28.6873 27.6302ZM28.999 23.1718C28.6079 23.016 28.6873 22.7013 28.6079 22.3896C28.5284 22.2337 28.3726 21.9984 28.6873 21.919C28.9226 21.8395 28.999 22.0748 28.999 22.2307C28.999 22.6218 29.1579 22.8571 28.999 23.1718V23.1718ZM27.8256 15.8166C28.0609 15.7372 28.1373 16.0519 28.2167 16.2872C28.452 17.0695 29.1548 17.7723 29.0785 18.8694C28.2962 18.1665 28.1404 17.2253 27.6697 16.5225C27.5934 16.2872 27.5934 15.8961 27.8256 15.8167L27.8256 15.8166ZM28.1403 40.614C28.2198 41.0051 28.2962 41.3168 28.2198 41.6316C28.2198 41.7874 28.2992 42.0227 27.9845 41.9433C27.7492 41.8638 27.5139 41.7874 27.5933 41.5521C27.6697 41.2405 27.8256 40.9288 28.1403 40.614V40.614ZM27.5933 27.7862C27.4375 28.0979 27.5933 28.4891 27.2022 28.648C26.9669 28.5686 26.8111 28.4127 26.8111 28.2569C26.8111 27.8657 26.9669 27.6304 27.2816 27.4746C27.4344 27.3951 27.6697 27.6304 27.5933 27.7863V27.7862ZM26.0288 31.9329C26.2641 31.6212 26.4199 31.6212 26.5758 31.9329C26.8875 32.5594 26.4199 32.9505 26.0288 33.418C26.1052 32.871 25.6376 32.4004 26.0288 31.9329ZM25.4024 31.6976C25.0907 31.7771 24.9318 31.3065 24.9318 31.0712C24.9318 30.7595 25.1671 30.4448 25.3229 30.2095C25.714 30.3653 25.9493 30.6006 25.9493 30.9123C25.9493 31.227 25.714 31.6182 25.4024 31.6976V31.6976ZM25.4787 39.4409C25.4787 39.5968 25.3993 39.8321 25.1671 39.7526C24.9318 39.6732 24.6201 39.4409 24.6965 39.0498C24.6965 38.8145 24.7759 38.5792 25.0876 38.5028C25.4024 38.8175 25.4024 39.1292 25.4787 39.4409V39.4409ZM26.5757 30.9947C26.3404 30.4477 25.714 29.9771 26.1051 29.1948C26.1846 28.9595 25.9493 28.8037 25.714 28.8831C25.4787 28.9626 25.3229 28.8831 25.4023 28.6478C25.4023 28.4126 25.5582 28.1773 25.7935 28.0214C26.0288 27.8656 26.0288 28.1773 26.1051 28.2567C26.1846 28.4126 26.3404 28.5684 26.4963 28.7273C26.5757 28.8067 26.7316 28.8831 26.7316 28.9626C26.811 29.6654 26.7316 30.3713 27.358 30.9183C27.4375 30.9977 27.2786 31.3094 26.8874 31.3889C26.811 31.3064 26.6521 31.1505 26.5757 30.9947V30.9947ZM25.9493 26.4569C25.5582 26.4569 25.4023 25.9863 25.4023 25.6746C25.4023 25.4393 25.4818 25.0482 25.8729 25.1276C26.1846 25.2071 26.3435 25.4393 26.3435 25.8304C26.1051 26.0657 26.261 26.5333 25.9493 26.4569H25.9493ZM26.6521 26.5333C26.8874 26.5333 27.0433 26.7686 26.9638 26.9244C26.8844 27.1597 26.808 27.5508 26.4932 27.4714C26.2579 27.4714 26.3374 27.0008 26.1815 26.845C26.261 26.6127 26.4963 26.5333 26.6521 26.5333V26.5333ZM26.3404 18.087C26.5757 17.6959 26.811 17.4606 27.358 17.0694C27.2022 17.54 27.5933 18.1634 26.7316 18.0075C26.7316 18.0075 26.6521 18.087 26.5758 18.087C26.4963 18.2428 26.7316 19.6515 26.8874 19.6515C27.1227 19.731 27.2786 19.8868 27.1227 20.0427C26.9669 20.278 26.811 20.0427 26.6521 19.9632C25.6376 19.181 25.6376 19.181 26.3405 18.087H26.3404ZM25.0875 19.728C25.3992 19.8839 25.6345 20.1986 25.7904 20.5898C25.8698 20.7456 25.7109 20.9015 25.6345 20.8251C25.3228 20.6692 25.0081 20.4339 24.7728 20.1222C24.8553 19.8839 25.0111 19.728 25.0875 19.728L25.0875 19.728ZM24.4642 27.0038C24.62 26.848 24.7759 26.3774 25.167 26.6921C25.7934 27.2391 24.9317 27.5539 24.9317 27.945C24.7759 27.6303 23.9141 27.6303 24.4642 27.0038V27.0038ZM24.1494 30.2124C24.1494 29.6654 24.2289 29.1184 24.3053 28.492C25.3229 29.4301 25.3992 29.9007 24.7759 30.4477C24.62 30.6035 24.5406 30.7594 24.3053 30.6035C24.1494 30.6035 24.1494 30.3682 24.1494 30.2124V30.2124ZM24.2289 32.1681C24.3083 32.0122 24.1494 31.7769 24.3847 31.7769C24.6964 31.7769 24.7759 32.0122 24.9317 32.1681C25.0875 32.4034 24.9317 32.4798 24.7759 32.5592C24.4642 32.7151 24.5406 32.9503 24.6964 33.1062C24.8523 33.5768 25.0875 34.0443 25.2434 34.5149C25.3992 34.8266 25.3992 35.1413 25.1639 35.2177C24.9287 35.3736 24.7728 35.0619 24.6934 34.8266C24.3817 34.2796 24.1464 33.7327 23.9111 33.2621C23.9936 32.8709 24.073 32.5592 24.2289 32.1681L24.2289 32.1681ZM15.1529 44.37C15.1529 44.1347 15.4646 44.1347 15.6999 44.1347C17.1086 43.9789 18.5173 43.9789 19.9229 43.8994C21.7228 43.82 23.4432 43.5877 25.243 43.5877C25.8695 43.5877 26.5723 43.6672 27.1987 43.5083C27.3546 43.5083 27.5104 43.5083 27.5899 43.273C27.5104 42.9613 27.1193 43.1171 27.0429 42.8819C27.0429 42.726 27.1987 42.8024 27.2782 42.726C28.5311 42.4907 28.9222 42.0996 29.078 40.7703C29.2339 39.1263 29.3133 37.5617 29.3897 35.9208C29.5456 33.8857 29.8603 31.93 29.9367 29.8979C29.9367 28.0217 29.9367 26.066 30.0162 24.1867C30.172 21.6046 29.8603 19.0224 29.7809 16.4434C29.7809 16.1317 29.7809 15.817 29.9367 15.5053C30.2484 14.8789 30.0162 14.1761 30.3278 13.5496C30.5631 13.1585 30.719 12.9232 31.1101 12.8468C31.9719 12.6115 32.91 12.7673 33.8481 12.691C36.5066 12.4557 39.1682 12.691 41.7506 12.4557C43.3947 12.3762 45.0356 12.6115 46.6001 12.2998C46.8354 12.2998 46.9913 12.2998 47.2265 12.3793C47.9294 12.3793 48.7116 12.2998 49.4939 12.2998C49.4939 12.2204 49.5733 12.2204 49.5733 12.144C49.6528 11.9881 49.885 11.9087 50.1203 11.9881C50.9821 12.2234 51.8407 11.9881 52.7025 12.0676C53.173 12.0676 53.5642 12.147 53.9554 12.3029C54.5818 12.3029 55.2846 12.3823 55.911 12.4587C56.0669 12.4587 56.1463 12.3793 56.3022 12.3793C57.8667 12.0676 59.4313 12.3793 61.0753 12.2998C61.4665 12.2998 61.7017 12.4557 61.4665 12.9262C61.1548 13.5527 61.4665 14.2555 61.5459 14.9614C61.7017 15.6642 61.7812 16.3701 61.8576 17.0729C62.0134 19.8904 62.5604 22.7047 62.2487 25.5223C62.0929 26.6162 62.1693 27.7133 62.0929 28.8072C62.0134 29.9806 62.3282 31.1541 62.1723 32.4069C62.0929 32.9539 61.7812 33.4245 61.8606 33.9715C62.1723 35.6919 61.3137 37.4123 61.4695 39.1358C61.549 39.7622 61.3901 40.3887 61.3137 41.0915C61.549 41.1709 61.7842 41.3268 61.9401 41.562C62.0959 41.4826 62.3312 41.562 62.4871 41.562C63.9721 41.7973 65.3809 42.109 66.8691 42.1885C68.5895 42.2679 70.3098 42.4238 71.9539 42.5002C72.1892 42.5002 72.4245 42.5002 72.6567 42.5796C72.8125 42.6591 73.1273 42.6591 73.1273 42.8913C73.1273 43.0471 72.9714 43.203 72.8156 43.2824C71.4863 43.9089 70.7041 45.0823 69.607 46.0204C68.1983 47.2733 66.7896 48.4467 65.3045 49.5406C64.9928 49.7759 64.7575 50.0112 64.6017 50.3229C64.29 50.9494 63.5841 51.1847 63.1166 51.5758C62.0227 52.5139 61.1609 53.611 59.908 54.4696C59.1257 54.9402 58.4229 55.643 57.8728 56.3458C57.2464 57.0487 56.3878 57.3634 55.7613 57.9899C55.6819 58.0693 55.4496 58.1457 55.3702 58.1457H55.2907C55.1349 58.381 54.979 58.5368 54.7438 58.6927C54.7438 58.7721 54.7437 58.7721 54.8232 58.8485C54.9026 59.0838 54.6674 59.0838 54.5115 59.2397C53.7292 59.9425 52.947 60.7247 52.0852 61.4307C50.5206 62.9157 48.8003 64.1686 47.0799 65.4979C46.3771 66.0449 45.7506 66.5918 45.0447 67.1419C44.5741 67.4536 44.0271 67.2978 43.636 67.7683C43.636 67.7683 43.4007 67.7683 43.4007 67.6889C42.6184 66.6713 41.3655 66.1243 40.5833 64.9509C40.2716 64.4039 39.5657 64.1687 39.0187 63.857C37.5336 62.9952 36.3602 61.666 35.0278 60.6484C34.1661 60.022 33.228 59.3955 32.4457 58.6927C31.4281 57.831 30.1784 57.1282 28.846 56.5812C28.8429 56.3398 28.6871 56.3398 28.6076 56.2603C27.1226 54.6163 25.0079 53.7577 23.367 52.349C22.8964 51.8784 22.2731 51.4872 22.0378 50.8639C22.0378 50.7844 21.9583 50.708 21.8819 50.6286C20.0821 49.3757 18.6733 47.579 16.7177 46.5614C16.1707 46.2497 15.7796 45.6996 15.3089 45.3085C14.9972 45.0763 15.1531 44.6851 15.1531 44.3704L15.1529 44.37ZM15.4677 47.2638C14.5295 47.4991 14.2942 46.8727 13.8236 46.1699C14.5264 46.4816 14.997 46.7963 15.4677 47.2638ZM12.5708 44.2936C12.6503 44.1377 12.8825 43.9819 12.9619 44.1377C13.2736 44.5289 14.1354 44.6847 13.5089 45.467C13.4295 45.5464 13.5089 45.7787 13.5089 45.8581C13.1972 45.8581 12.8825 45.3875 12.4913 45.7787C12.3355 45.8581 12.256 45.6992 12.256 45.6992C12.4149 45.2317 12.2591 44.6847 12.5708 44.2936L12.5708 44.2936Z" fill="#F36F21"/>
</svg>
