<svg width="85" height="85" viewBox="0 0 85 85" fill="none" xmlns="http://www.w3.org/2000/svg">
<path d="M82.2762 40.2687C82.0995 37.2844 80.4221 34.8581 79.1357 32.1935C77.0248 27.8143 74.8733 23.4577 72.9542 18.9896C71.1076 14.6919 68.9456 10.5374 67.2469 6.17821C66.6294 4.59296 65.9318 2.84065 64.8372 1.52424C64.5412 1.16839 64.3933 3.19055 64.517 3.48008C63.9735 2.20437 64.7133 3.94156 64.7541 4.03506C65.0228 4.66616 65.2807 5.30212 65.5347 5.93925C65.5048 5.89439 65.4705 5.89555 65.435 6.00148C64.0844 10.0193 62.8683 14.4024 62.4282 18.6726C61.7435 19.0699 61.0599 19.46 60.3691 19.8332C61.7291 14.5378 63.0106 9.19049 64.2392 3.86767C64.2633 3.76058 64.1905 3.28444 64.1199 3.32667C64.1712 2.87994 64.1879 2.07489 63.907 2.17117C59.7307 3.61281 55.802 5.52796 51.668 7.11729C49.0967 8.10687 46.5163 8.80777 43.7669 9.04595C40.6229 9.31889 38.5891 7.40111 36.319 5.59907C32.3553 2.45453 27.3655 4.57775 23.3319 6.50194C18.4599 8.82576 13.8555 12.0541 9.29194 14.944C8.9862 14.3627 8.66909 13.7885 8.32222 13.2336C8.31426 13.2206 8.30676 13.2161 8.2988 13.2053C8.2218 13.0264 8.12215 12.9152 8.00403 12.935C6.4168 13.2049 4.8771 14.1474 3.5197 14.9768C3.20831 15.168 3.21171 16.4715 3.45777 16.8929C3.46574 17.0005 3.47965 17.0885 3.50153 17.1392C8.30746 28.4506 11.2683 40.4209 15.7994 51.8393C18.4538 58.5317 20.1882 63.6618 22.3855 70.5216C23.3726 73.6084 22.8732 70.9513 23.5737 74.1498C24.0074 76.1352 24.3321 77.9303 25.3184 79.7008C25.3402 80.0105 25.4335 80.2989 25.6267 80.3958C26.2564 80.7094 27.4118 80.0882 28.0203 79.8393C28.8945 79.4814 29.8899 79.0733 30.5501 78.3796C31.1435 79.1155 31.8063 77.4124 31.6726 76.8053C30.4104 71.0765 29.9529 71.1654 27.5986 65.8219C26.2711 62.8079 25.2847 60.0662 24.3762 57.3192C27.7458 53.961 32.6533 51.8194 36.9481 49.9211C39.9932 48.573 43.1945 47.7662 46.5237 48.0007C49.5073 48.2111 51.2859 50.663 53.5189 52.266C57.2906 54.9683 62.9662 51.6885 66.4359 49.9543C71.5015 47.424 75.9632 44.3507 81.281 42.3696C81.5814 42.258 81.723 41.7091 81.7078 41.1751C81.7999 41.1567 81.8921 41.1384 81.9861 41.1191C82.276 41.0618 82.288 40.4812 82.276 40.2686L82.2762 40.2687ZM77.9402 40.263C77.9598 40.1008 77.9783 39.9381 78.0093 39.7817C78.2052 38.7941 78.5257 37.8257 78.9209 36.8976C79.1802 37.4313 79.4512 37.9554 79.7313 38.4725C79.7196 38.4947 79.7064 38.5104 79.6974 38.5409C79.5615 39.008 79.4505 39.492 79.3357 39.9735C78.8741 40.0248 78.4091 40.1179 77.9402 40.263ZM77.3963 34.3665C76.7471 36.5435 76.0774 38.8448 75.863 41.1462C75.2368 41.4719 74.6136 41.8402 73.9979 42.2329C74.6661 38.4844 75.4436 34.7921 76.3322 31.0692C77.0773 32.7609 77.8031 34.5107 78.6 36.2131C78.024 37.4828 77.4506 39.0404 77.3163 40.4867C77.026 40.5977 76.7357 40.7208 76.445 40.8575C76.7398 38.8988 77.0841 36.9731 77.6379 35.0255C77.6922 34.8341 77.5292 33.9217 77.3963 34.3666V34.3665ZM74.5109 30.1762C73.7779 34.7379 72.293 39.2035 71.6867 43.7868C70.956 44.2928 70.2505 44.7777 69.5809 45.1989C70.2444 40.2047 71.7003 35.4869 72.9377 30.5997C72.9517 30.5454 72.9437 30.4223 72.9252 30.2965C73.784 29.939 74.6423 29.5821 75.4807 29.1795C75.5517 29.3337 75.617 29.4898 75.6887 29.6436C75.8306 29.9489 75.9691 30.2616 76.1081 30.5727C75.0538 34.4814 73.758 38.5134 73.4549 42.5839C73.0332 42.8625 72.6161 43.1459 72.2058 43.4287C73.177 39.1218 74.2143 34.756 74.6786 30.387C74.6952 30.2468 74.5654 29.8456 74.511 30.1763L74.5109 30.1762ZM80.0159 39.4212C80.0492 39.3081 80.0582 39.1822 80.0624 39.0574C80.239 39.3677 80.4199 39.6738 80.6071 39.9748C80.3693 39.9458 80.13 39.9362 79.8888 39.9402C79.9314 39.7673 79.9662 39.5926 80.016 39.4212H80.0159ZM74.6061 27.2272C70.8563 27.2736 66.9722 30.5649 64.0959 32.4291C63.4255 32.8636 62.7638 33.2649 62.1077 33.6346C61.4812 32.1877 60.8364 30.7515 60.1536 29.354C59.2518 27.5097 58.4395 25.6513 57.6668 23.7794C61.1188 22.6669 65.1901 20.5889 68.0313 18.3407C68.0582 18.368 68.0906 18.3761 68.1212 18.3216C68.1352 18.2973 68.1389 18.2681 68.151 18.2428C68.3488 18.0836 68.5417 17.9244 68.7262 17.7642C68.7262 17.7941 68.7194 17.8247 68.7206 17.8544C68.7236 17.9461 68.7282 18.1858 68.8505 18.216L68.9003 18.2266L68.9834 18.1541C69.1211 17.848 69.2113 17.5242 69.2997 17.1998C69.3284 17.1324 69.3518 17.0448 69.3703 16.9455C69.4024 16.8296 69.4356 16.7139 69.4725 16.5998C69.5526 16.3506 69.5405 16.0294 69.4529 15.7851C69.3789 15.58 69.2491 15.5905 69.1841 15.7926C69.1807 15.8032 69.1769 15.8145 69.1735 15.8251C69.1581 15.8196 69.1467 15.8043 69.1298 15.8032C68.9395 15.7895 68.7553 15.7998 68.5711 15.8096C68.6956 15.3288 68.8489 14.8551 69.0172 14.3888C69.4872 15.4681 69.9639 16.5459 70.4569 17.6219C71.9116 20.7934 73.2056 24.0315 74.606 27.2271L74.6061 27.2272ZM63.0488 35.8547C63.2258 35.7531 63.4021 35.6517 63.572 35.5518C63.6573 35.5018 63.7403 35.4487 63.8252 35.3984C63.6999 35.8749 63.5708 36.3514 63.4474 36.8291C63.316 36.5039 63.1827 36.1793 63.0488 35.8547ZM64.2416 35.1458C64.8078 34.8027 65.3709 34.4549 65.9308 34.1021C65.4737 35.8914 64.861 37.6926 64.5164 39.5229C64.268 38.8823 64.0197 38.2424 63.763 37.6004C63.9404 36.7838 64.102 35.9656 64.2416 35.1458V35.1458ZM66.1893 33.9395C66.8054 33.5506 67.4214 33.162 68.0419 32.7805C67.1734 36.1836 66.1531 39.6356 65.833 43.145C65.5684 42.2844 65.2548 41.428 64.9233 40.5643C64.893 40.4855 64.861 40.406 64.8308 40.3272C65.2751 38.3171 65.7677 36.3243 66.2384 34.3138C66.2539 34.2461 66.229 34.0801 66.1893 33.9396V33.9395ZM66.0761 44.0075C66.7204 40.2546 67.4863 36.5642 68.3824 32.854C68.3944 32.8036 68.3832 32.6979 68.3616 32.5893C68.7432 32.3575 69.1244 32.1252 69.5117 31.9025C69.6612 31.8165 69.8141 31.7393 69.9654 31.6582C69.1663 36.6626 67.1872 41.4983 67.051 46.5866C66.8702 46.6818 66.6886 46.7773 66.5063 46.8731C66.4777 45.8974 66.3191 44.9467 66.0761 44.0076V44.0075ZM55.6783 24.6958C54.7207 28.1684 52.5699 32.174 52.9579 35.934C52.3819 35.8592 51.801 35.7342 51.2148 35.5606C51.7262 31.8185 53.1973 28.3523 53.7729 24.6136C54.5403 24.5454 55.3307 24.4146 56.1513 24.2119C56.4933 25.2643 56.8519 26.3091 57.2472 27.3375C56.171 30.0609 55.2451 33.0778 55.2556 35.9867C54.6215 36.0378 53.9847 36.0361 53.3434 35.976C53.4739 32.2462 54.9499 28.8229 55.8762 25.2224C55.9155 25.0667 55.7766 24.3384 55.6784 24.6958H55.6783ZM49.0847 44.1426C49.0666 44.877 48.8193 45.5776 48.6442 46.2915C48.283 46.156 47.9213 46.0451 47.5598 45.9503C47.6798 45.2834 47.9006 44.5837 48.0097 43.9616C48.1777 42.9995 48.2645 42.0429 48.3116 41.0693C49.204 43.1175 49.9947 45.3582 50.9607 47.4582C50.3112 47.0497 49.6672 46.7127 49.0251 46.4453C49.1187 45.6796 49.1911 44.9124 49.2101 44.14C49.2161 43.9454 49.0893 43.9526 49.0848 44.1426H49.0847ZM34.3514 40.2288C34.9157 38.2611 35.3524 36.2406 35.882 34.2627C35.8971 34.2085 35.8888 34.082 35.868 33.9604C36.4739 33.8007 37.0819 33.6701 37.6923 33.5736C36.911 36.5876 35.6839 39.5891 35.3852 42.6902C35.0425 41.8715 34.69 41.0537 34.3514 40.2288V40.2288ZM32.3591 35.1464C32.7796 34.9778 33.2186 34.8277 33.6531 34.6729C33.4817 35.4842 33.2805 36.2905 33.122 37.1026C32.8687 36.45 32.6135 35.7986 32.3591 35.1464V35.1464ZM33.9973 34.5498C34.2366 34.4674 34.4638 34.3739 34.7077 34.2959C35.0122 34.1978 35.3177 34.1066 35.623 34.0221C35.0821 35.8847 34.4193 37.7627 34.1309 39.6863C34.1052 39.6213 34.0777 39.5572 34.052 39.492C33.8258 38.9145 33.6016 38.3363 33.3771 37.7583C33.6391 36.7041 33.8436 35.624 33.9972 34.5497L33.9973 34.5498ZM32.4882 32.9383C32.2017 33.0445 31.9133 33.1554 31.6242 33.2697C30.8802 31.3847 30.1211 29.5058 29.3175 27.6438C28.6176 26.0212 27.905 24.409 27.2028 22.7927C31.4037 20.9399 36.0356 19.575 40.4075 20.8966C41.2824 23.5518 42.0272 26.2635 42.9935 28.8668C43.3977 29.9565 43.833 31.0353 44.2826 32.1085C40.4716 30.6898 36.6921 31.3815 32.4882 32.9383ZM17.4869 36.6958C18.2954 33.0925 19.3082 29.6807 20.7561 26.2731C20.7682 26.2448 20.7727 26.1982 20.7746 26.146C21.1294 25.9258 21.4853 25.7083 21.8458 25.4979C20.4099 29.9421 18.7468 34.5007 18.6471 39.1767C18.6423 39.3682 18.7815 39.4753 18.8098 39.231C19.3809 34.4345 20.8896 29.8605 22.2742 25.2551C22.8325 24.9377 23.3971 24.6323 23.9682 24.3388C22.4187 29.6122 20.7383 35.0337 20.3064 40.5342C19.938 40.9363 19.5927 41.3536 19.2657 41.782C18.6848 40.0824 18.0915 38.387 17.4867 36.6956L17.4869 36.6958ZM15.0865 30.2762C15.9121 29.8726 16.5889 29.237 17.2928 28.6098C16.7678 29.9227 16.1857 31.2539 15.9932 32.6416C15.6938 31.8518 15.3968 31.0608 15.0864 30.2762H15.0865ZM17.7616 28.205C17.9432 28.0534 18.1285 27.9056 18.3221 27.7674C18.9356 27.3297 19.5629 26.9124 20.1974 26.5056C18.834 29.5947 17.5683 32.8434 17.3159 36.2196C16.963 35.2373 16.6043 34.2575 16.2382 33.2809C16.7871 31.6117 17.2899 29.8941 17.7617 28.2048L17.7616 28.205ZM24.3877 24.1725C24.3911 24.1602 24.3919 24.1389 24.3933 24.1208C24.5405 24.0469 24.6851 23.9672 24.833 23.895C25.1214 23.7544 25.4136 23.6147 25.7073 23.4753C25.853 23.8456 26.0002 24.2154 26.1486 24.5843C24.8855 28.9991 23.5822 33.477 23.028 38.0432C22.198 38.6909 21.4159 39.3841 20.6979 40.1234C21.6431 34.7278 22.877 29.4641 24.3876 24.1724L24.3877 24.1725ZM26.3528 25.0976C26.6854 25.9162 27.024 26.7324 27.3674 27.5469C26.7982 30.4845 25.8225 33.4046 25.4174 36.3738C24.721 36.811 24.0411 37.2728 23.3889 37.7636C24.2604 33.5081 25.2177 29.2968 26.3528 25.0976V25.0976ZM27.6034 28.1026C27.8906 28.7797 28.1794 29.4562 28.4719 30.1319C28.6052 30.4399 28.7282 30.7528 28.858 31.0624C28.4647 32.3216 28.0967 33.6212 27.9978 34.9084C27.3353 35.2483 26.6793 35.6089 26.0357 35.9928C26.6102 33.3748 27.1616 30.7351 27.6033 28.1025L27.6034 28.1026ZM28.6867 33.5354C28.8173 32.9353 28.9762 32.3409 29.1427 31.7484C29.3073 32.149 29.4763 32.5477 29.6368 32.9503C29.5213 33.3925 29.3699 33.842 29.248 34.2958C28.9936 34.4149 28.74 34.5363 28.4863 34.6618C28.5452 34.2848 28.6052 33.9078 28.6867 33.5353V33.5354ZM29.895 33.6157C29.9373 33.7247 29.9792 33.8338 30.0219 33.9429C29.949 33.975 29.8765 34.0059 29.8037 34.0387C29.8362 33.8982 29.8645 33.7567 29.8951 33.6156L29.895 33.6157ZM35.4332 7.05969C35.4287 7.11984 35.4276 7.16848 35.4306 7.19712C35.5031 7.80336 35.6216 8.38899 35.759 8.96674C34.6145 11.9516 33.512 15.1091 33.1752 18.3192C32.4263 18.5088 31.6831 18.7351 30.9549 18.9863C31.8952 14.8098 33.3692 10.6647 34.4541 6.52757C34.7885 6.68361 35.1147 6.86235 35.4332 7.05969V7.05969ZM38.6496 16.2902C38.9169 16.8768 39.1618 17.4738 39.3974 18.0751C38.921 17.9539 38.4356 17.8709 37.9427 17.8278C37.9577 17.722 37.9725 17.6242 37.9902 17.5479C38.1261 16.9683 38.2816 16.3933 38.4315 15.817C38.5043 15.9747 38.5772 16.1316 38.6496 16.2903V16.2902ZM37.4429 17.8019C36.8673 17.7791 36.2848 17.8006 35.6986 17.8609C36.1036 16.3331 36.5034 14.8146 36.9831 13.2968C37.0431 13.1053 36.8835 12.2398 36.7431 12.668C36.1898 14.3629 35.4472 16.1112 35.2506 17.9074C34.6968 17.9813 34.1416 18.088 33.5882 18.2163C34.2401 15.3184 34.9048 12.4766 35.9289 9.6559C36.466 11.5708 37.2968 13.3663 38.1465 15.199C37.8807 16.029 37.5328 16.9328 37.4429 17.8018V17.8019ZM31.8722 14.8123C31.4698 16.2519 30.9096 17.6456 30.636 19.0995C29.8388 19.383 29.0616 19.6874 28.3176 19.9924C29.5209 15.2477 30.8923 10.5885 32.4535 5.94164C33.1213 6.018 33.7456 6.21179 34.3424 6.47885C33.3795 9.21095 32.6532 12.0235 31.8723 14.8123H31.8722ZM51.5443 24.643C50.4511 27.7685 49.1179 31.2489 48.904 34.6173C48.3845 34.3484 47.861 34.0489 47.3288 33.6945C47.9799 30.5661 49.1437 27.5325 49.5181 24.3672C50.1835 24.5017 50.8565 24.5976 51.5443 24.643V24.643ZM49.2524 24.6006C49.6993 23.6958 49.0078 25.6819 48.9685 25.833C48.6454 27.0451 48.2513 28.2394 47.892 29.4412C47.5039 30.7382 47.1978 32.0346 47.0393 33.3606C46.681 32.6385 46.3292 31.9177 45.9854 31.1976C46.3957 29.7992 46.7992 28.3977 47.1763 26.9926C47.4311 26.0415 47.7707 24.9233 47.693 23.8977C48.2309 24.0647 48.7707 24.2087 49.315 24.3258C49.2878 24.3982 49.2618 24.4709 49.2342 24.5433L49.2523 24.6006L49.2524 24.6006ZM46.4228 27.9092C46.1586 28.7751 45.8823 29.6426 45.6645 30.5219C45.3161 29.779 44.9832 29.037 44.6642 28.295C44.8907 26.5757 45.2807 24.8864 45.7438 23.201C46.3111 23.4293 46.8762 23.6374 47.442 23.8208C47.0894 25.1761 46.8347 26.5586 46.4228 27.9091V27.9092ZM44.2603 27.3297C44.0085 26.7154 43.7707 26.0962 43.5352 25.4763C43.6903 24.4714 43.8557 23.4671 44.0353 22.4628C44.5445 22.6961 45.0488 22.9168 45.5505 23.1225C45.0647 24.4599 44.5612 25.8992 44.2604 27.3297H44.2603ZM43.3174 24.9196C43.1706 24.5256 43.0317 24.1287 42.889 23.7332C42.9814 23.1549 43.0317 22.5726 43.0381 21.996C43.3472 22.1438 43.6538 22.2882 43.9583 22.4282C43.7699 23.2546 43.5277 24.0842 43.3174 24.9196ZM42.6636 23.1042C42.4798 22.5866 42.2926 22.0699 42.1121 21.5512C42.1359 21.5624 42.1597 21.5702 42.1835 21.5817C42.4277 21.7016 42.6693 21.8183 42.9105 21.9342C42.8501 22.3276 42.7613 22.7166 42.6636 23.1042ZM42.222 33.546C42.5281 33.595 42.8244 33.6697 43.1169 33.7552C42.5957 37.9014 40.7563 41.9861 40.6453 46.1702C40.0677 46.3212 39.4785 46.4963 38.873 46.6972C39.5461 42.2474 41.1435 37.9422 41.4478 33.4502C41.7052 33.4762 41.963 33.5045 42.222 33.5459V33.546ZM43.24 33.7918C44.0104 34.031 44.739 34.3828 45.4445 34.7958C45.4701 34.8534 45.497 34.9103 45.5226 34.968C44.4144 38.3012 43.2978 42.1096 43.1967 45.6808C42.5086 45.7598 41.8072 45.8855 41.0862 46.0586C41.874 42.0212 43.3012 37.8818 43.24 33.7918ZM51.713 24.655C52.3686 24.6904 53.039 24.6772 53.7264 24.6183C52.7782 28.0943 50.8422 31.7643 50.8143 35.4363C50.3073 35.2664 49.7954 35.0604 49.278 34.8108C50.0552 31.4237 51.2605 28.0764 51.713 24.655V24.655ZM55.9648 7.48781C55.3016 9.77163 54.5153 12.0736 54.2507 14.4335C54.0152 13.5661 53.7774 12.6187 53.4576 11.7228C53.7151 10.5622 54.0657 9.40899 54.1707 8.25874C54.7724 8.00951 55.371 7.75449 55.9648 7.48781V7.48781ZM56.1577 7.40126C56.634 7.18616 57.1123 6.9743 57.5879 6.75735C56.5488 9.88737 55.3676 13.1889 54.9151 16.5074C54.8196 16.2333 54.7192 15.9639 54.6244 15.6886C54.5712 15.5335 54.5198 15.3706 54.4696 15.2035C54.9543 12.5834 55.7146 10.0253 56.1577 7.40126V7.40126ZM57.7325 6.69195C58.3692 6.40165 59.0106 6.12115 59.6538 5.84521C58.7109 9.476 57.6283 13.068 56.7171 16.7079C56.4514 17.7733 56.1751 18.7862 56.1125 19.8305C55.8244 19.0584 55.5436 18.2788 55.2666 17.4984C55.9717 13.8634 56.8682 10.3076 57.7326 6.69187L57.7325 6.69195ZM57.5302 28.0451C57.7578 28.6096 57.9929 29.1708 58.2466 29.7233C58.3685 29.9883 58.483 30.2545 58.6022 30.5197C58.1085 32.1935 57.4015 33.9266 57.2464 35.6587C56.7259 35.7874 56.2053 35.8907 55.684 35.9524C56.1816 33.2421 56.6383 30.6488 57.5302 28.0451H57.5302ZM58.2088 33.6847C58.4398 32.8497 58.6776 32.0185 58.8981 31.1822C59.1567 31.765 59.4119 32.3486 59.6609 32.933C59.4239 33.5846 59.1676 34.3418 59.0581 35.0894C58.6425 35.2483 58.2281 35.3942 57.814 35.515C57.9389 34.9 58.0442 34.2766 58.2088 33.6847L58.2088 33.6847ZM59.9739 33.6713C60.0958 33.9614 60.2215 34.2509 60.3415 34.5414C60.1154 34.6468 59.8893 34.7495 59.664 34.845C59.7485 34.4491 59.8496 34.0572 59.9739 33.6714V33.6713ZM68.7262 13.7159C68.4692 14.4159 68.2642 15.1283 68.108 15.8582C67.6788 15.924 67.2621 16.038 66.8574 16.1977C67.1273 14.7923 67.5262 13.439 68.0057 12.027C68.2427 12.591 68.4843 13.154 68.7262 13.7159V13.7159ZM67.7293 11.3644C67.1586 12.8715 66.3195 14.7547 66.133 16.5237C65.8205 16.6805 65.5121 16.8523 65.2064 17.0321C65.7318 14.4191 66.489 11.8637 66.8242 9.21018C66.8258 9.19751 66.8242 9.17775 66.8242 9.16177C67.1224 9.89826 67.4244 10.6324 67.7294 11.3644H67.7293ZM65.6178 6.52603C65.6416 6.44913 65.622 6.2131 65.5811 6.05552C65.7838 6.56409 65.9847 7.07344 66.187 7.58162C66.3244 7.9279 66.4656 8.27094 66.6041 8.6159C66.5905 8.64795 66.5777 8.69674 66.5675 8.76993C66.1515 11.6715 64.9131 14.4931 64.5711 17.4116C64.2751 17.5916 63.98 17.7714 63.6837 17.9429C63.4542 18.076 63.2258 18.2089 62.9978 18.3418C63.994 14.4539 64.4243 10.3853 65.6179 6.52603H65.6178ZM63.9931 3.73441C62.5897 9.11807 60.7107 14.5025 59.9957 20.0332C59.428 20.3326 58.8536 20.6196 58.2654 20.8852C59.4095 15.5182 60.9609 10.2779 62.1884 4.92851C62.9324 4.70723 63.6364 4.40882 63.9931 3.73441V3.73441ZM61.9563 4.99507C60.5691 10.3239 58.5678 15.5618 57.9053 21.0392C57.5275 21.2028 57.1429 21.3568 56.7518 21.5014C56.6208 21.164 56.4921 20.8256 56.3637 20.4871C56.4838 18.2456 57.3508 15.877 57.9098 13.7583C58.6183 11.0667 59.3601 8.38822 60.0278 5.68724C60.3074 5.56965 60.5837 5.4448 60.8661 5.33324C61.1998 5.20168 61.5776 5.10192 61.9563 4.99507V4.99507ZM53.8735 8.37988C53.7588 8.85618 53.6712 9.34251 53.5191 9.80437C53.407 10.1431 53.2707 10.5422 53.1548 10.9603C52.8472 10.2598 52.4674 9.62309 51.9707 9.12355C52.3158 8.99407 52.6554 8.86567 52.9831 8.74276C53.2836 8.62965 53.5765 8.50032 53.8736 8.37988H53.8735ZM38.5955 9.47261C42.1154 12.3176 46.9851 10.945 51.0199 9.47485C51.0387 9.73535 51.0765 9.96798 51.1109 10.0335C53.0499 13.7496 54.1899 17.8561 55.4318 21.9231C50.1699 23.3054 45.8502 20.6494 41.1126 18.684C40.8506 17.9357 40.5883 17.1872 40.315 16.4424C39.1981 13.3967 37.4531 10.6612 36.2968 7.64377C37.0816 8.21457 37.8361 8.8588 38.5956 9.47261H38.5955ZM32.3477 5.93469C30.5189 10.5399 28.8108 15.2521 27.9562 20.1417C27.5893 20.2938 27.228 20.445 26.8804 20.5913C26.7026 20.666 26.5373 20.75 26.3625 20.8269C26.298 20.6745 26.2327 20.5224 26.1685 20.3696C26.1723 20.3606 26.1768 20.361 26.1798 20.3452C27.1265 15.4982 28.3004 10.8471 29.8598 6.17921C30.1417 6.11721 30.4241 6.05614 30.7094 6.00426C31.285 5.89979 31.8283 5.88497 32.3476 5.93469H32.3477ZM22.7419 11.0394C23.0344 10.1899 23.3303 9.33278 23.556 8.46581C24.2249 8.12579 24.904 7.81247 25.5936 7.52711C25.2108 9.63907 24.2403 11.6143 23.7077 13.6957C23.4254 12.7913 23.1189 11.899 22.7418 11.0394H22.7419ZM25.6903 7.48851C26.3539 7.21689 27.0265 6.97144 27.7094 6.75503C26.6306 10.0287 25.2471 13.2404 24.6666 16.6368C24.3586 15.8023 24.0951 14.9491 23.832 14.0969C24.664 11.9532 25.4227 9.76978 25.6903 7.48843V7.48851ZM27.8256 6.71998C28.4383 6.52904 29.0573 6.35787 29.6861 6.21496C27.6705 10.5 26.3301 15.5312 26.0979 20.2027C25.6721 19.1882 25.2558 18.169 24.8568 17.1405C25.7064 13.6221 26.9434 10.2299 27.8255 6.7199L27.8256 6.71998ZM23.2239 8.63791C22.9711 9.28275 22.7302 9.93439 22.5498 10.5983C22.3508 10.184 22.1209 9.78383 21.8707 9.39308C22.0609 9.28298 22.2486 9.16648 22.4399 9.05947C22.6992 8.91416 22.9616 8.77557 23.2239 8.63799V8.63791ZM20.9418 9.93702C20.9569 10.1873 20.9905 10.3996 21.04 10.4935C22.6937 13.5894 23.3078 17.0275 24.4999 20.3017C24.6433 20.6968 24.7954 21.0877 24.943 21.4809C21.0309 23.4205 17.8269 25.9506 14.5811 28.939C13.0384 24.8539 11.8664 20.4438 10.0247 16.4505C13.8692 14.7156 17.325 12.1283 20.9419 9.93702H20.9418ZM29.5009 76.1936C28.9758 76.5842 28.4708 77.0013 27.9103 77.351C27.5226 77.5932 27.0274 77.8023 26.5638 78.0411C26.5454 77.9647 26.5231 77.8934 26.494 77.8335C25.4387 75.6658 25.2284 73.192 24.481 70.9134C23.4834 67.8688 24.2474 70.4595 23.2372 67.418C21.1929 61.2669 19.7691 56.7536 17.2868 50.7662C14.5404 44.1424 12.3948 37.4168 10.1402 30.6189C8.636 26.0825 6.95592 20.9652 4.65825 16.6626C5.74122 16.1907 6.74789 15.5316 7.92603 15.2618C7.94072 15.3174 7.95695 15.3674 7.97659 15.4034C10.7955 20.5501 11.8981 26.597 14.1731 32.0167C16.8644 38.4226 19.0488 45.0637 21.1562 51.6762C22.8836 57.0884 24.0752 60.7995 26.1468 66.0895C28.1127 71.1046 27.8228 72.304 29.501 76.1936H29.5009ZM23.9061 55.3074C23.8574 55.3598 23.82 55.4328 23.789 55.5159C22.9775 52.9828 22.186 50.3982 21.22 47.5413C20.7052 46.0181 20.1914 44.4922 19.6731 42.9669C23.2682 40.1632 26.7321 37.689 30.7522 35.8426C31.3705 37.4876 31.9721 39.139 32.5787 40.784C33.2854 42.6963 33.9735 45.9726 35.3516 48.0246C31.1995 49.7563 26.8043 52.1922 23.906 55.3073L23.9061 55.3074ZM36.9774 47.3766C36.9468 47.2382 36.9099 47.1019 36.8759 46.9649C37.9471 42.6078 38.5519 38.1236 39.6133 33.7539C39.6224 33.7193 39.5899 33.6122 39.5726 33.6906C38.5319 37.8786 37.0609 42.1204 36.7408 46.4496C36.4494 45.403 36.075 44.3837 35.6646 43.3737C36.252 40.0637 37.2183 36.8564 37.8272 33.5541C38.9943 33.379 40.1716 33.3268 41.3655 33.4399C40.7328 37.9356 38.6979 42.2225 38.6175 46.7849C38.4156 46.8537 38.2152 46.9203 38.0095 46.994C37.6701 47.116 37.3251 47.2443 36.9774 47.3766V47.3766ZM43.6605 45.6284C44.3391 42.1438 45.0783 38.6169 45.5913 35.1186C46.0223 36.0794 46.4598 37.0369 46.9018 37.9917C46.496 40.4587 45.5063 43.091 45.5576 45.6175C44.9333 45.5734 44.303 45.5757 43.6605 45.6285V45.6284ZM46.0257 45.6616C46.1933 44.603 46.2869 43.5263 46.4862 42.473C46.7327 41.1689 46.9973 39.8748 47.1657 38.5594C47.4355 39.1407 47.7054 39.7227 47.975 40.303C48.055 40.4757 48.1301 40.6576 48.2083 40.8338C48.0415 42.5378 47.4382 44.1669 47.1891 45.8545C46.8033 45.7678 46.4157 45.7058 46.0257 45.6616V45.6616ZM53.5905 49.1852C52.6729 45.049 50.8505 41.044 48.9031 37.1008C49.6286 37.5774 50.3673 38.0141 51.1426 38.3442C54.3753 39.7198 58.1308 38.4267 61.2656 36.8245C62.6683 40.3588 63.963 43.9218 65.275 47.5149C61.449 49.4815 57.4456 51.1474 53.5905 49.1852V49.1852ZM67.4349 46.385C68.0442 41.3647 69.5835 36.544 70.1991 31.5319C70.9933 31.1206 71.8102 30.7636 72.6319 30.4194C71.318 35.3461 69.3363 40.2768 69.2208 45.4196C68.9165 45.6029 68.6176 45.7758 68.3311 45.9217C68.034 46.0727 67.735 46.2279 67.4349 46.385V46.385Z" fill="#F36F21"/>
</svg>
