<svg width="84" height="84" viewBox="0 0 84 84" fill="none" xmlns="http://www.w3.org/2000/svg">
<path d="M77.1899 68.724C74.8355 71.6091 72.7125 74.2659 69.9786 76.5433C69.2195 76.0126 68.3092 75.4818 67.6242 74.7227C65.347 72.1431 62.3878 70.4706 59.956 68.0422C57.4504 65.5366 55.1731 62.8057 52.4422 60.5285C50.0138 58.4795 47.6594 56.3535 45.2309 54.2274C43.7128 52.8605 43.4844 52.3297 44.5489 50.5832C45.1568 49.5217 44.9285 48.9879 44.0182 48.4572C43.6386 48.2289 43.182 47.9264 42.8795 47.621C42.2717 46.8619 41.6638 46.8619 40.7535 47.3185C36.199 49.6729 31.3424 50.8856 26.3309 51.1139C20.9402 51.3423 16.4628 49.2162 12.5163 45.2696C4.46848 37.2992 5.4562 22.5714 12.2139 14.6011C15.2502 11.034 18.8944 8.90792 23.4491 7.99762C29.2934 6.70778 34.8323 7.84639 40.1459 10.1237C43.1822 11.4135 45.6107 13.9191 48.0389 16.1963C48.4955 16.653 48.798 17.4121 49.1004 18.0941C49.4028 18.7761 49.557 19.461 49.8595 20.0689C52.2879 24.9258 52.2138 29.8596 50.4673 34.871C49.4058 37.9845 47.6593 40.7154 45.4561 43.1436C44.9995 43.6743 44.4687 44.2051 43.938 44.6617C43.5584 45.0413 43.4072 45.572 43.8609 45.8775C44.6971 46.4853 45.0766 47.9264 46.1381 47.7752C47.3539 47.624 48.113 46.5594 48.5666 45.4208C48.6437 45.1184 48.7178 44.8129 48.869 44.5105C49.2486 43.7514 49.6281 43.2948 50.4643 44.2081C50.8439 44.6647 51.2234 45.1955 51.6801 45.6491C52.5163 46.5594 53.1983 47.6239 54.5652 48.0035C55.6267 48.3059 56.3858 49.2933 57.1449 50.0524C60.4837 53.3171 63.6742 56.8071 67.2415 59.7695C69.6699 61.8184 71.8731 64.0216 74.0732 66.2988C74.3757 66.6783 74.9835 66.9067 75.0607 67.2862C75.1407 68.4961 76.1283 68.2704 77.1899 68.724ZM48.0426 51.0366C47.1323 50.7341 46.3732 51.0366 45.537 51.339C45.8394 52.1752 46.4473 52.6288 46.978 53.0084C48.8758 54.5266 50.6963 56.2731 52.3688 58.0196C57.8336 63.7127 63.4529 69.3284 69.5992 74.4173C70.3583 74.0378 70.5866 73.2787 70.9662 72.5967C71.2686 71.9889 71.7253 71.2298 70.4354 71.1557C69.8276 71.0786 69.7534 70.5478 70.0559 70.0942C70.4354 69.4863 70.8921 68.9555 71.2716 68.3477C71.4999 68.0452 71.8024 67.6657 71.4229 67.2862C70.9662 66.8295 70.5866 67.2091 70.2071 67.5145C69.448 67.9711 69.2197 69.1098 68.0811 69.3351C67.4732 67.8169 69.5221 67.209 69.1426 65.9192C68.0039 65.768 67.9268 67.3602 66.7882 67.2861C66.7882 66.0704 66.7882 66.0704 67.319 65.1601C68.3064 63.4136 68.2292 63.1853 66.5599 61.6671C66.4828 62.1237 66.2574 62.6545 66.4086 62.8057C66.8653 63.4877 66.7882 63.8672 66.1803 64.3239C65.6496 64.7034 65.5725 65.6137 64.8905 65.6909C63.6747 65.7679 64.4339 64.5522 64.1314 64.0956C63.9802 63.9443 63.7519 63.7931 63.6006 63.6389C63.144 63.2594 63.2211 62.8027 63.5235 62.3491C63.826 61.8925 64.2055 61.4388 64.5851 61.0593C65.267 60.5285 65.3441 59.9978 64.5851 59.6182C64.2055 59.3899 63.9772 58.8591 63.3693 58.8591C63.141 60.3773 62.5331 61.6671 61.3945 62.6545C59.8763 60.834 60.407 59.0875 61.3945 57.1897C60.2558 57.5693 60.1046 58.3284 59.7251 58.8591C59.4226 59.3158 59.1172 59.8465 58.5093 59.8465C57.5219 59.8465 58.281 58.8591 57.9015 58.5567C57.1424 57.9488 57.5219 57.2669 57.7502 56.5819C57.9015 55.974 58.4322 55.3661 58.0527 54.5329C56.9141 54.6842 56.9912 55.8228 56.3833 56.4307C56.155 56.659 56.0038 56.9614 55.6242 56.8873C55.2447 56.7361 55.2447 56.4307 55.2447 56.1282C55.3218 55.5974 55.7013 55.0667 55.473 54.5329C53.9548 54.8354 53.8777 54.7612 54.1832 53.5455C54.2603 53.1659 54.6398 52.8635 54.2603 52.484C53.1988 52.5611 53.1216 54.1534 51.983 54.0793C51.4522 52.8635 53.0445 52.1044 52.4396 50.9658C51.301 51.4225 51.301 53.166 49.6316 53.0919C49.9341 51.6508 50.8474 50.7375 51.7577 49.9043C52.5168 49.1452 52.7451 48.4633 51.4552 47.7783C50.9245 48.6145 50.3937 49.4477 49.8599 50.3579C49.4804 50.8887 49.2521 51.4966 48.5701 51.7249C47.9622 51.9532 47.8881 51.5737 48.1135 51.117C48.7213 50.2068 49.86 49.5989 49.4033 47.7012C48.7243 48.988 47.8914 49.8238 48.0426 51.0366ZM47.586 23.4074C46.8269 21.738 45.9907 20.1427 45.3858 18.3962C44.3984 15.5882 42.2724 13.9929 39.6156 13.2338C38.2486 12.8543 36.7304 12.3976 35.743 11.5644C33.9224 10.0463 32.0247 10.0463 29.8987 10.2746C29.2908 10.3517 28.9112 10.4258 28.3034 10.1234C27.0165 9.44138 21.0179 10.0463 19.728 10.8825C16.235 13.0085 13.8836 16.1961 11.3781 19.2324C10.9214 19.7632 10.7702 20.5222 10.4678 21.1301C9.55746 23.2562 9.55746 25.6846 8.79838 27.8107C8.19052 29.406 8.19052 31.0753 8.41884 32.7447C8.87547 36.5401 10.6961 39.8048 12.9733 42.7639C14.2632 44.5104 15.7073 46.1026 17.9845 46.6364C19.4256 46.9389 20.8697 47.4726 22.2366 48.0034C23.7548 48.5342 25.4242 48.8396 27.1707 48.6854C29.8275 48.3058 32.5614 48.1546 35.2185 47.7751C37.1933 47.4726 39.2422 47.1672 40.7604 45.8774C42.9605 43.9797 45.392 42.1591 46.3764 39.1968C46.6047 38.589 46.9843 38.0582 47.2867 37.5274C48.0458 36.2376 48.5766 34.8706 48.7278 33.2753C48.9561 31.3005 48.879 29.2516 49.2585 27.3539C49.6381 25.2278 49.3356 23.4072 48.4223 21.5095C47.7374 22.1174 48.2709 22.8766 47.586 23.4074Z" fill="#F36F21"/>
<path d="M44.2475 28.4189C43.186 27.4315 42.8806 26.37 42.6522 25.3054C41.5136 20.4485 38.0977 17.335 34.3797 14.6008C32.4049 13.1598 29.674 12.7802 27.0913 13.1598C24.055 13.6905 21.0957 14.6779 18.2844 15.8937C16.7662 16.5757 15.7788 17.7914 15.0968 19.3096C14.8685 19.7662 14.7944 20.5994 14.0353 20.2199C13.3534 19.9174 13.4275 19.2324 13.7329 18.5505C14.9486 16.122 16.9204 14.4526 19.5032 13.5393C20.793 13.0827 22.16 12.8573 23.3757 12.4007C26.2608 11.3392 29.146 11.5645 32.0278 12.0982C34.0767 12.4778 35.9744 13.2369 37.2642 15.0574C37.4925 15.3599 37.795 15.5882 38.1745 15.8937C41.8928 18.93 43.4881 23.105 44.3984 27.582C44.4755 27.8104 44.3988 27.9622 44.2475 28.4189Z" fill="#F36F21"/>
<path d="M32.5554 37.679C29.8986 39.2743 27.0134 40.5641 23.9033 40.7924C22.5364 40.8695 20.867 40.7924 20.0308 38.6664C22.308 39.1972 24.3569 39.9562 26.483 39.123C28.4578 38.3639 30.4296 37.8332 32.4785 37.1482C32.4815 37.2994 32.5554 37.5277 32.5554 37.679Z" fill="#F36F21"/>
</svg>
