<?xml version="1.0" standalone="no"?>
<!DOCTYPE svg PUBLIC "-//W3C//DTD SVG 20010904//EN"
 "http://www.w3.org/TR/2001/REC-SVG-20010904/DTD/svg10.dtd">
<svg version="1.0" xmlns="http://www.w3.org/2000/svg"
 width="600.000000pt" height="600.000000pt" viewBox="0 0 600.000000 600.000000"
 preserveAspectRatio="xMidYMid meet">
<metadata>
Created by potrace 1.14, written by Peter Selinger 2001-2017
</metadata>
<g transform="translate(0.000000,600.000000) scale(0.100000,-0.100000)"
fill="#000000" stroke="none">
<path d="M350 5833 c0 -3 6 -17 14 -31 8 -15 24 -49 36 -77 28 -61 117 -256
158 -345 16 -36 53 -117 82 -180 29 -63 66 -144 82 -180 17 -36 53 -114 80
-174 27 -60 65 -143 85 -185 19 -42 55 -121 80 -176 25 -55 63 -137 84 -183
21 -46 39 -85 39 -87 0 -2 20 -45 44 -97 24 -51 53 -115 66 -143 12 -27 36
-79 52 -115 17 -36 41 -87 53 -115 12 -27 35 -77 50 -110 15 -33 51 -112 80
-175 29 -63 66 -144 82 -180 17 -36 54 -117 83 -180 29 -63 65 -142 80 -175
24 -53 97 -212 165 -360 13 -27 46 -102 75 -165 28 -63 68 -149 87 -190 19
-41 52 -113 73 -160 21 -47 58 -128 82 -180 25 -52 60 -129 78 -170 18 -41 55
-122 81 -179 27 -57 49 -105 49 -107 0 -1 23 -51 51 -111 28 -59 59 -126 69
-148 18 -41 94 -209 148 -325 16 -36 53 -117 82 -180 29 -63 67 -146 85 -185
17 -38 60 -131 94 -206 l63 -136 63 -2 c40 -1 66 3 73 12 6 7 34 64 62 127 29
63 62 138 75 165 13 28 56 122 95 210 39 88 82 183 95 210 13 28 34 75 48 105
14 30 99 219 190 420 91 201 208 460 260 575 160 354 507 1122 547 1210 19 42
167 369 242 535 11 25 53 117 93 205 40 88 113 250 163 360 49 110 101 225
115 255 14 30 82 181 152 335 69 154 135 298 145 320 51 110 300 665 300 669
0 3 -316 -112 -365 -134 -11 -5 -144 -54 -295 -110 -151 -56 -280 -107 -286
-114 -10 -10 -92 -190 -464 -1021 -62 -137 -123 -275 -137 -305 -14 -30 -52
-114 -84 -187 -32 -72 -80 -180 -107 -240 -53 -114 -82 -180 -114 -253 -11
-25 -30 -67 -43 -95 -13 -27 -91 -203 -175 -390 -84 -187 -161 -358 -171 -380
-62 -134 -321 -712 -323 -720 -1 -5 -15 -37 -30 -70 -16 -33 -37 -80 -47 -104
-11 -24 -21 -42 -24 -40 -2 3 -27 56 -55 119 -29 63 -63 140 -77 170 -13 30
-36 79 -50 109 -13 29 -63 139 -110 245 -47 105 -96 216 -110 246 -14 30 -43
96 -65 145 -22 50 -49 110 -60 135 -70 153 -222 493 -418 930 -95 212 -182
408 -195 435 -13 28 -71 158 -130 290 -143 319 -291 649 -317 705 -11 25 -34
74 -50 110 -86 193 -70 172 -161 204 -45 16 -95 34 -112 41 -16 7 -68 26 -115
44 -47 17 -98 36 -115 43 -16 6 -32 12 -35 13 -3 1 -12 4 -20 8 -8 3 -89 33
-180 67 -91 33 -172 63 -180 67 -42 17 -110 39 -110 36z"/>
</g>
</svg>
