<svg width="111" height="51" viewBox="0 0 111 51" fill="none" xmlns="http://www.w3.org/2000/svg">
<g opacity="0.6">
<path d="M98.3068 13.1064C99.9142 13.0746 101.51 13.3888 102.984 14.0276C104.458 14.6664 105.776 15.6148 106.849 16.8077C108.846 18.9894 109.941 21.8426 109.913 24.7948C109.937 26.2953 109.661 27.7856 109.101 29.179C108.541 30.5724 107.709 31.8412 106.653 32.9116C105.594 34.0522 104.3 34.9505 102.859 35.5446C101.418 36.1388 99.8651 36.4147 98.3068 36.3532C96.7504 36.3998 95.2017 36.1172 93.763 35.5239C92.3244 34.9307 91.0284 34.0403 89.9606 32.9116C87.9012 30.7434 86.7374 27.8821 86.7012 24.8978C86.6649 21.9134 87.7588 19.025 89.765 16.8077C90.8372 15.6148 92.1556 14.6664 93.6298 14.0276C95.104 13.3888 96.6994 13.0746 98.3068 13.1064ZM98.3068 15.8987C97.1695 15.8832 96.0418 16.1065 94.9969 16.5541C93.9521 17.0016 93.0137 17.6633 92.2428 18.4961C90.8841 19.9225 90.0185 21.7438 89.7722 23.6945C89.5259 25.6452 89.9117 27.6232 90.8735 29.3402C91.608 30.6711 92.6962 31.775 94.0188 32.531C95.3415 33.2869 96.8475 33.6657 98.372 33.6259C99.8777 33.6304 101.359 33.2503 102.675 32.522C103.981 31.7527 105.06 30.6555 105.805 29.3402C106.767 27.6232 107.153 25.6452 106.907 23.6945C106.66 21.7438 105.795 19.9225 104.436 18.4961C103.639 17.6789 102.687 17.0282 101.634 16.5822C100.582 16.1362 99.4506 15.9038 98.3068 15.8987Z" fill="#2B3C4A"/>
<path d="M80.5712 29.2103C80.2435 27.4991 80.1123 25.7563 80.1799 24.0155V16.483H84.7443V13.6259H80.1799V7.26227L77.311 5.37915V13.6259H73.3987V16.483H77.311V24.3402C77.311 27.522 77.7022 29.8597 78.4194 31.4181C79.1023 32.9369 80.2413 34.2074 81.6797 35.0545C82.5827 35.583 83.5785 35.9356 84.6139 36.0934L84.6791 33.1714C84.1061 32.978 83.5588 32.7164 83.0489 32.3921C82.4389 32.0594 81.9041 31.6052 81.4779 31.0578C81.0516 30.5104 80.743 29.8815 80.5712 29.2103Z" fill="#2B3C4A"/>
<path d="M51.6204 13.6909L54.4894 15.7038V24.0155C54.4183 25.7564 54.5495 27.4995 54.8806 29.2103C55.2576 30.5327 56.0883 31.6816 57.228 32.4571C58.4478 33.2498 59.8796 33.6572 61.3359 33.6259C62.773 33.6667 64.1868 33.2579 65.3785 32.4571C66.4718 31.7343 67.2787 30.6554 67.6607 29.4051C68.0383 27.6127 68.1916 25.7806 68.1171 23.9506V15.6389L71.0513 13.6259V24.535C71.0513 27.587 70.6601 29.9246 69.9428 31.4181C69.26 32.9369 68.1209 34.2074 66.6826 35.0545C65.0279 35.962 63.1588 36.4105 61.2706 36.3532C59.3824 36.4105 57.5134 35.962 55.8587 35.0545C54.4344 34.1905 53.2997 32.925 52.5984 31.4181C51.8812 29.8597 51.5552 27.4571 51.5552 24.3402L51.6204 13.6909Z" fill="#2B3C4A"/>
<path d="M1.08679 13.6259L4.80345 14.9896L11.5847 29.7947L18.366 14.9896L22.0826 13.6259L11.8455 35.7688H11.3239L1.08679 13.6259Z" fill="#2B3C4A"/>
<path d="M51.2291 35.7688L35.254 1.22333H34.7324L19.0181 35.7688L22.7347 34.4051L34.9932 7.19735L39.4923 16.9376H32.1242L30.8201 19.7298H40.7964L47.5124 34.4051L51.2291 35.7688Z" fill="#2B3C4A"/>
</g>
</svg>
