<svg width="720" height="102" viewBox="0 0 720 102" fill="none" xmlns="http://www.w3.org/2000/svg">
<path d="M73.1082 34.2513C73.3171 38.8314 72.4533 43.3969 70.5863 47.5813C68.7192 51.7658 65.9008 55.4527 62.3572 58.3462C55.1901 64.1827 45.3062 67.1004 32.7056 67.0993H27.2503L20.3368 100.202H0.991577L20.5905 7.13246H42.0278C52.2595 7.13246 59.998 9.39237 65.2433 13.9122C70.4886 18.432 73.1102 25.2117 73.1082 34.2513ZM30.7389 50.9298H34.2908C39.3885 51.2228 44.4208 49.6635 48.4668 46.5374C50.1649 45.0989 51.5132 43.2902 52.4091 41.2493C53.3049 39.2083 53.7246 36.989 53.636 34.7606C53.636 27.1215 49.5133 23.3019 41.2677 23.3019H36.5741L30.7389 50.9298Z" fill="#333333"/>
<path d="M113.396 27.6953C115.448 27.642 117.498 27.8777 119.485 28.3956L115.299 46.8567C113.258 46.1553 111.113 45.8108 108.956 45.8382C106.518 45.8435 104.108 46.3651 101.884 47.3688C99.6594 48.3725 97.6713 49.8357 96.0489 51.663C91.9342 56.3974 89.2016 62.1799 88.1521 68.3734L81.4289 100.202H62.3374L77.3696 29.0313H91.9578L90.6259 42.2087H91.0063C97.2222 32.5331 104.685 27.6953 113.396 27.6953Z" fill="#333333"/>
<path d="M177.149 55.8953C177.301 64.0553 175.779 72.1596 172.677 79.7038C170.029 86.2108 165.542 91.7982 159.77 95.7775C153.819 99.6721 146.829 101.659 139.727 101.475C136.099 101.65 132.474 101.076 129.076 99.7894C125.678 98.5029 122.578 96.5309 119.969 93.9952C117.462 91.3522 115.515 88.2268 114.245 84.8077C112.975 81.3885 112.409 77.7466 112.58 74.1017C112.433 65.8227 113.977 57.6012 117.115 49.9432C119.795 43.3057 124.347 37.5976 130.213 33.5192C136.144 29.5695 143.139 27.5371 150.256 27.6953C153.873 27.5074 157.49 28.0783 160.875 29.3717C164.261 30.6651 167.34 32.6525 169.918 35.2072C174.738 40.2155 177.149 47.1115 177.149 55.8953ZM157.93 55.8953C157.93 47.536 154.907 43.3557 148.86 43.3546C147.248 43.3738 145.657 43.7289 144.188 44.3973C142.72 45.0657 141.406 46.0329 140.329 47.2377C137.433 50.5109 135.328 54.4102 134.177 58.6327C132.592 63.6346 131.789 68.8529 131.798 74.1017C131.798 81.9538 134.969 85.8795 141.312 85.8788C142.932 85.8569 144.529 85.4976 146.003 84.8236C147.478 84.1497 148.796 83.1758 149.876 81.9637C152.688 78.8611 154.721 75.1292 155.805 71.0787C157.261 66.1516 157.977 61.0342 157.93 55.8953Z" fill="#333333"/>
<path d="M248.738 29.0275H209.868L210.627 25.0886C210.997 22.6293 212.028 20.3178 213.609 18.4026C214.33 17.5669 215.228 16.9042 216.238 16.4634C217.248 16.0225 218.344 15.8147 219.444 15.8554C222.363 15.9037 225.238 16.5751 227.878 17.8247L232.953 3.56554C228.276 1.43054 223.185 0.365923 218.048 0.448771C211.775 0.0552858 205.584 2.04228 200.702 6.01571C196.577 9.73572 193.647 15.6265 191.912 23.688L190.777 29.0275L179.17 34.3755L177.259 43.6099H187.602L174.321 100.208H193.402L206.693 43.6099H227.882L215.929 100.202H235.021L250.053 29.0313H248.737L248.738 29.0275Z" fill="#333333"/>
<path d="M252.006 8.10872C249.955 6.65961 247.469 5.96283 244.967 6.13535C241.865 5.93545 238.807 6.95092 236.436 8.96809C235.376 10.0729 234.56 11.3893 234.04 12.8317C233.521 14.2741 233.31 15.81 233.421 17.3396C233.421 22.5597 236.614 25.1697 242.999 25.1697C244.578 25.3011 246.167 25.0874 247.656 24.5434C249.145 23.9995 250.499 23.1382 251.625 22.0188C253.555 19.7207 254.552 16.777 254.416 13.7744C254.479 12.7072 254.294 11.6398 253.876 10.6565C253.458 9.67326 252.818 8.80103 252.006 8.10872Z" fill="#333333"/>
<path d="M277.066 86.006C280.592 85.8458 284.065 85.0927 287.342 83.778V98.1013C282.039 100.476 276.274 101.629 270.47 101.475C264.127 101.475 259.466 100.138 256.484 97.4646C254.893 95.8404 253.669 93.8905 252.898 91.7481C252.126 89.6057 251.824 87.3213 252.013 85.0511C252.041 82.6556 252.296 80.2683 252.774 77.9212L260.068 43.6092H250.426L252.266 34.2513L264.697 28.9038L273.07 13.8803H285.375L282.267 29.0313H300.217L297.045 43.6097H279.159L271.865 77.9217C271.629 79.0313 271.502 80.1612 271.484 81.2956C271.485 84.4367 273.345 86.0068 277.066 86.006Z" fill="#333333"/>
<path d="M303.981 7.13625L300.492 23.5568H322.819L306.702 100.199H326.054L342.162 23.5568H363.459L366.948 7.13625H303.981Z" fill="#333333"/>
<path d="M387.957 8.10772C385.905 6.66209 383.421 5.96693 380.92 6.13838C377.817 5.93941 374.758 6.95246 372.382 8.96558C371.324 10.0724 370.509 11.39 369.991 12.833C369.472 14.276 369.262 15.8123 369.373 17.3421C369.373 22.559 372.565 25.1675 378.949 25.1675C380.528 25.2994 382.117 25.086 383.606 24.542C385.095 23.998 386.449 23.1362 387.574 22.0163C389.503 19.7177 390.5 16.7744 390.365 13.7719C390.428 12.7051 390.243 11.6382 389.825 10.6553C389.408 9.67234 388.768 8.80024 387.957 8.10772ZM366.913 29.0275L351.878 100.199H370.968L386.004 29.0275H366.913Z" fill="#333333"/>
<path d="M486.698 33.1064C485.058 31.2612 483.02 29.8151 480.74 28.8779C478.46 27.9407 475.997 27.5368 473.538 27.6971C469.088 27.6997 464.736 29.0046 461.014 31.452C456.851 34.2152 453.371 37.8944 450.837 42.2099H450.453C448.63 32.5292 443.089 27.6916 433.83 27.6973C424.996 27.6973 417.493 32.5349 411.321 42.2099H410.937L412.272 29.0277H397.681L382.646 100.199H401.737L407.955 70.7273C409.2 63.5777 411.736 56.7166 415.437 50.4816C418.612 45.65 422.144 43.2311 426.034 43.2251C430.176 43.2251 432.249 45.8365 432.252 51.0592C432.201 53.6139 431.859 56.1543 431.231 58.6307L422.545 100.199H441.636L447.723 70.6049C448.975 63.4517 451.523 56.5895 455.241 50.359C458.389 45.6061 461.909 43.2281 465.802 43.2251C469.945 43.2251 472.018 45.8365 472.02 51.0592C471.97 53.6139 471.627 56.1543 471 58.6307L462.253 100.199H481.343L489.777 59.6555C490.666 55.8989 491.154 52.0581 491.233 48.1979C491.562 42.7856 489.954 37.4335 486.698 33.1064Z" fill="#333333"/>
<path d="M550.293 32.879C545.242 29.1494 539.048 27.3157 532.79 27.6971C525.638 27.5914 518.609 29.5708 512.556 33.3952C506.364 37.4543 501.447 43.1941 498.376 49.9473C494.826 57.4503 493.036 65.6694 493.142 73.9745C493.142 82.7189 495.595 89.4879 500.503 94.2815C505.404 99.0783 512.297 101.477 521.18 101.477C529.739 101.623 538.212 99.7461 545.914 95.9972V81.546C542.411 83.2927 538.76 84.7221 535.003 85.8175C531.73 86.656 528.361 87.0616 524.983 87.024C523.298 87.2032 521.594 87.005 519.994 86.4438C518.394 85.8826 516.939 84.9723 515.732 83.7785C514.525 82.5847 513.597 81.1371 513.014 79.5399C512.432 77.9428 512.209 76.2358 512.363 74.5421V73.273L512.494 71.9338H515.73C528.837 71.9338 538.922 69.7805 545.982 65.474C549.258 63.6851 551.979 61.0248 553.847 57.7851C555.715 54.5455 556.657 50.8519 556.57 47.11C556.692 44.4122 556.189 41.7227 555.1 39.2532C554.01 36.7838 552.365 34.6017 550.293 32.879ZM532.754 55.9257C527.988 58.226 522.722 59.2885 517.44 59.0155H514.588C515.495 54.3358 517.741 50.0227 521.051 46.6038C522.364 45.0743 523.978 43.8326 525.79 42.9561C527.603 42.0797 529.576 41.5872 531.586 41.5094C536.025 41.5094 538.243 43.5255 538.24 47.5577C538.213 49.3316 537.682 51.0609 536.711 52.543C535.739 54.025 534.367 55.1985 532.754 55.9257Z" fill="#333333"/>
<path d="M564.578 27.2768C565.087 27.0434 565.519 26.6702 565.825 26.2003C566.125 25.7275 566.279 25.1769 566.27 24.6168C566.301 24.2083 566.235 23.7983 566.079 23.4198C565.923 23.0413 565.681 22.7048 565.372 22.4373C564.635 21.9234 563.747 21.6736 562.851 21.7282H560.462V31.7496H561.604V27.6526H563.505L565.886 31.7496H567.264L564.578 27.2768ZM562.877 26.743H561.604V22.7078H562.851C564.343 22.7078 565.084 23.3643 565.084 24.6683C565.103 24.9529 565.059 25.2382 564.957 25.5043C564.855 25.7704 564.695 26.0108 564.491 26.2088C564.041 26.5875 563.463 26.7787 562.877 26.743ZM564.578 27.2768C565.087 27.0434 565.519 26.6702 565.825 26.2003C566.125 25.7275 566.279 25.1769 566.27 24.6168C566.301 24.2083 566.235 23.7983 566.079 23.4198C565.923 23.0413 565.681 22.7048 565.372 22.4373C564.635 21.9234 563.747 21.6736 562.851 21.7282H560.462V31.7496H561.604V27.6526H563.505L565.886 31.7496H567.264L564.578 27.2768ZM562.877 26.743H561.604V22.7078H562.851C564.343 22.7078 565.084 23.3643 565.084 24.6683C565.103 24.9529 565.059 25.2382 564.957 25.5043C564.855 25.7704 564.695 26.0108 564.491 26.2088C564.041 26.5875 563.463 26.7787 562.877 26.743ZM570.604 22.4448C569.866 21.1377 568.787 20.0573 567.482 19.3198C566.184 18.5727 564.713 18.1804 563.216 18.1819C561.72 18.1835 560.25 18.5788 558.953 19.3286C557.007 20.4603 555.585 22.317 554.995 24.4953C554.406 26.6735 554.697 28.9972 555.805 30.9614C556.551 32.2775 557.632 33.3716 558.937 34.1323C560.241 34.8931 561.724 35.2934 563.233 35.2925C564.741 35.2916 566.223 34.8896 567.527 34.1273C568.831 33.3649 569.91 32.2696 570.655 30.9526C571.385 29.6524 571.763 28.1838 571.754 26.6918C571.745 25.1997 571.348 23.7359 570.603 22.4448H570.604ZM569.689 30.4977C569.035 31.6334 568.097 32.5779 566.968 33.2374C565.832 33.901 564.54 34.2481 563.226 34.2428C561.91 34.2511 560.617 33.9002 559.485 33.2276C558.351 32.5709 557.41 31.6259 556.755 30.4879C556.097 29.3496 555.751 28.0565 555.752 26.7403C555.754 25.4241 556.103 24.1318 556.764 22.9951C557.414 21.8508 558.355 20.8993 559.489 20.2368C560.624 19.5743 561.913 19.2244 563.225 19.2225C564.562 19.2136 565.876 19.5772 567.019 20.2729C568.149 20.9398 569.085 21.8933 569.731 23.0378C570.372 24.1654 570.706 25.4422 570.699 26.7402C570.706 28.0614 570.357 29.3598 569.689 30.4982V30.4977ZM565.825 26.1995C566.125 25.7267 566.279 25.1762 566.27 24.616C566.301 24.2075 566.235 23.7976 566.079 23.419C565.923 23.0405 565.681 22.704 565.372 22.4366C564.635 21.9226 563.747 21.6729 562.851 21.7275H560.462V31.7496H561.604V27.6526H563.505L565.886 31.7496H567.264L564.577 27.2768C565.086 27.0436 565.519 26.6703 565.825 26.2003L565.825 26.1995ZM562.877 26.7422H561.604V22.7078H562.851C564.343 22.7078 565.084 23.3643 565.084 24.6683C565.103 24.9529 565.059 25.2382 564.957 25.5043C564.855 25.7704 564.695 26.0108 564.491 26.2088C564.041 26.5875 563.463 26.7787 562.877 26.743V26.7422Z" fill="#333333"/>
<path d="M594.714 37.5061C599.562 34.0548 605.364 32.2106 611.307 32.2315C614.062 32.2184 616.811 32.4794 619.515 33.0107C622.698 33.7289 625.806 34.7497 628.797 36.0591L630.657 31.4437C627.751 30.1864 624.731 29.2143 621.639 28.5411C618.367 27.8847 615.036 27.5718 611.7 27.6076C604.818 27.5493 598.075 29.5528 592.333 33.3618C586.277 37.4619 581.472 43.1678 578.453 49.845C574.971 57.2731 573.215 65.3978 573.317 73.6063C573.317 82.6142 575.6 89.5128 580.168 94.3021C584.74 99.0803 591.222 101.472 599.611 101.478C606.373 101.4 613.074 100.187 619.438 97.8899L626.783 64.3671H606.905L606.018 68.7941H620.863L615.13 94.6447C610.23 96.167 605.132 96.9464 600.003 96.9571C597.064 97.1444 594.118 96.7023 591.361 95.6601C588.605 94.6178 586.101 92.9993 584.015 90.9118C580.279 86.8788 578.41 81.1105 578.41 73.6068C578.304 66.2802 579.792 59.0187 582.77 52.3286C585.335 46.39 589.464 41.2655 594.714 37.5061Z" fill="#F06F21"/>
<path d="M671.01 33.1821C666.658 29.8914 661.271 28.2807 655.834 28.6439H640.408L625.232 100.493H630.274L636.587 70.9088H646.432C666.345 70.9088 676.301 62.7172 676.301 46.3341C676.457 43.8841 676.063 41.4302 675.147 39.1537C674.231 36.8772 672.818 34.8364 671.01 33.1821ZM665.013 61.6442C661.046 64.804 654.949 66.3824 646.721 66.3794H637.371L644.52 33.1562H654.852C665.593 33.1562 670.962 37.6459 670.959 46.6254C670.959 53.4754 668.977 58.4817 665.013 61.6442Z" fill="#F06F21"/>
<path d="M689.259 35.8879C692.862 33.0326 697.379 31.5927 701.963 31.8376C704.688 31.8572 707.399 32.2375 710.025 32.9687C712.629 33.6426 715.125 34.6835 717.438 36.0603L719.008 31.445C716.399 30.1178 713.637 29.1198 710.783 28.4738C707.882 27.8683 704.925 27.5784 701.962 27.6089C697.963 27.5522 694.001 28.3826 690.359 30.0407C687.081 31.5122 684.281 33.8802 682.28 36.8737C680.324 39.9071 679.32 43.4595 679.396 47.0718C679.319 50.6638 680.334 54.1941 682.305 57.193C685.006 60.6928 688.534 63.462 692.569 65.2503C695.051 66.6291 697.196 67.8593 699.001 68.9409C700.617 69.8669 702.112 70.9885 703.455 72.2804C704.578 73.3687 705.457 74.6853 706.031 76.1421C706.625 77.7877 706.909 79.5298 706.867 81.2795C706.946 83.4647 706.51 85.6377 705.596 87.6224C704.681 89.607 703.314 91.3473 701.604 92.7022C697.41 95.7513 692.296 97.2544 687.126 96.9579C681.149 96.9743 675.273 95.4121 670.088 92.4282V97.7883C672.764 99.0774 675.586 100.035 678.492 100.64C681.272 101.2 684.102 101.481 686.938 101.479C691.449 101.584 695.933 100.745 700.102 99.0129C703.683 97.4978 706.741 94.9611 708.898 91.7174C711.046 88.448 712.164 84.605 712.106 80.6889C712.164 78.2025 711.672 75.7341 710.664 73.462C709.609 71.3269 708.125 69.4346 706.304 67.9048C703.047 65.4192 699.542 63.2786 695.845 61.517C692.418 60.0509 689.371 57.8159 686.938 54.9838C685.257 52.5324 684.413 49.6002 684.532 46.6266C684.459 44.5944 684.847 42.5721 685.666 40.712C686.485 38.8518 687.713 37.2024 689.259 35.8879Z" fill="#F06F21"/>
</svg>
